<?xml version="1.0" standalone="no"?><!DOCTYPE svg PUBLIC "-//W3C//DTD SVG 1.1//EN" "http://www.w3.org/Graphics/SVG/1.1/DTD/svg11.dtd"><svg t="1702702787535" class="icon" viewBox="0 0 1024 1024" version="1.1" xmlns="http://www.w3.org/2000/svg" p-id="19578" xmlns:xlink="http://www.w3.org/1999/xlink" width="200" height="200"><path d="M218.790857 658.336c-10.098286 0-18.285714 8.187429-18.285714 18.285714 0 9.693714-7.881143 17.579429-17.570286 17.579429-9.693714 0-17.579429-7.885714-17.579429-17.579429 0-9.689143 7.885714-17.572571 17.579429-17.572571 10.098286 0 18.285714-8.187429 18.285714-18.285714 0-10.098286-8.187429-18.285714-18.285714-18.285714-29.858286 0-54.150857 24.288-54.150857 54.144 0 29.858286 24.292571 54.150857 54.150857 54.150857 29.853714 0 54.141714-24.292571 54.141714-54.150857C237.076571 666.523429 228.889143 658.336 218.790857 658.336z" p-id="19579"></path><path d="M877.922286 658.336c-10.098286 0-18.285714 8.187429-18.285714 18.285714 0 9.693714-7.881143 17.579429-17.570286 17.579429-9.693714 0-17.579429-7.885714-17.579429-17.579429 0-9.689143 7.885714-17.572571 17.579429-17.572571 10.098286 0 18.285714-8.187429 18.285714-18.285714 0-10.098286-8.187429-18.285714-18.285714-18.285714-29.858286 0-54.150857 24.288-54.150857 54.144 0 29.858286 24.292571 54.150857 54.150857 54.150857 29.853714 0 54.141714-24.292571 54.141714-54.150857C896.208 666.523429 888.020571 658.336 877.922286 658.336z" p-id="19580"></path><path d="M950.857143 237.606857 73.142857 237.606857c-40.331429 0-73.142857 32.811429-73.142857 73.142857l0 298.998857c0 50.048 42.379429 73.771429 74.237714 82.025143 7.408 53.380571 53.318857 94.621714 108.704 94.621714 47.403429 0 87.876571-30.219429 103.193143-72.406857L738.857143 713.988571c15.321143 42.187429 55.803429 72.406857 103.216 72.406857 47.403429 0 87.876571-30.219429 103.193143-72.406857L1005.714286 713.988571c10.098286 0 18.285714-8.187429 18.285714-18.285714L1024 310.749714C1024 270.418286 991.188571 237.606857 950.857143 237.606857zM987.428571 493.124571l-72.297143 0c-10.288 0-18.656-8.370286-18.656-18.656l0-144.861714L987.428571 329.606857 987.428571 493.124571zM182.941714 749.821714c-38.923429 0-70.838857-30.539429-73.067429-68.914286 0.171429-0.710857 0.313143-1.430857 0.4-2.176 0.256-2.201143 0.089143-4.349714-0.402286-6.386286C112.096 633.970286 144.013714 603.428571 182.941714 603.428571c40.349714 0 73.179429 32.834286 73.179429 73.190857C256.121143 716.982857 223.291429 749.821714 182.941714 749.821714zM403.618286 329.606857l200.429714 0 0 163.517714-200.429714 0L403.618286 329.606857zM367.046857 493.124571 128.395429 493.124571c-10.288 0-18.656-8.370286-18.656-18.656l0-144.861714 257.307429 0L367.046857 493.124571zM806.006857 329.606857l0 145.618286c0 9.869714-8.029714 17.899429-17.899429 17.899429l-147.488 0 0-163.517714L806.006857 329.606857zM604.048 529.696l0 147.718857-200.429714 0 0-147.718857L604.048 529.696zM842.073143 749.821714c-40.363429 0-73.202286-32.838857-73.202286-73.202286 0-40.356571 32.838857-73.190857 73.202286-73.190857 40.349714 0 73.179429 32.834286 73.179429 73.190857C915.252571 716.982857 882.425143 749.821714 842.073143 749.821714zM951.803429 677.414857c0.002286-0.265143 0.020571-0.528 0.020571-0.795429 0-60.523429-49.234286-109.762286-109.750857-109.762286-60.528 0-109.773714 49.238857-109.773714 109.762286 0 0.267429 0.018286 0.530286 0.020571 0.795429l-91.700571 0 0-147.718857 147.488 0c30.036571 0 54.470857-24.434286 54.470857-54.470857l0-163.904c0-10.098286-8.187429-18.285714-18.285714-18.285714L91.453714 293.035429c-10.098286 0-18.285714 8.187429-18.285714 18.285714l0 163.147429c0 30.452571 24.774857 55.227429 55.227429 55.227429l238.651429 0 0 147.718857-74.374857 0c0.002286-0.265143 0.020571-0.528 0.020571-0.795429 0-60.523429-49.234286-109.762286-109.750857-109.762286-52.738286 0-96.898286 37.385143-107.394286 87.042286C58.706286 648.118857 36.571429 635.606857 36.571429 609.746286L36.571429 310.749714c0-20.166857 16.406857-36.571429 36.571429-36.571429l877.714286 0c13.739429 0 25.721143 7.622857 31.970286 18.857143l-104.637714 0c-10.098286 0-18.285714 8.187429-18.285714 18.285714l0 163.147429c0 30.452571 24.774857 55.227429 55.227429 55.227429L987.428571 529.696l0 18.957714-17.803429 0c-10.098286 0-18.285714 8.187429-18.285714 18.285714s8.187429 18.285714 18.285714 18.285714L987.428571 585.225143l0 92.189714L951.803429 677.414857z" p-id="19581"></path></svg>