<?xml version="1.0" standalone="no"?><!DOCTYPE svg PUBLIC "-//W3C//DTD SVG 1.1//EN" "http://www.w3.org/Graphics/SVG/1.1/DTD/svg11.dtd"><svg t="1705585505628" class="icon" viewBox="0 0 1024 1024" version="1.1" xmlns="http://www.w3.org/2000/svg" p-id="4345" xmlns:xlink="http://www.w3.org/1999/xlink" width="200" height="200"><path d="M587.6 472.4a35.977 35.977 0 0 0 36-36V134a36 36 0 0 0-72 0v302.4a35.977 35.977 0 0 0 36 36z" fill="#1296db" p-id="4346"></path><path d="M738.8 220.4a35.977 35.977 0 0 0 36-36V134a36 36 0 0 0-72 0v50.4a35.977 35.977 0 0 0 36 36z" fill="#1296db" p-id="4347"></path><path d="M738.8 472.4a35.977 35.977 0 0 0 36-36V285.2a36 36 0 0 0-72 0v151.2a35.977 35.977 0 0 0 36 36z" fill="#1296db" p-id="4348"></path><path d="M890 98a35.977 35.977 0 0 0-36 36v151.2a36 36 0 0 0 72 0V134a35.977 35.977 0 0 0-36-36z" fill="#1296db" p-id="4349"></path><path d="M890 350a35.977 35.977 0 0 0-36 36v50.4a36 36 0 0 0 72 0V386a35.977 35.977 0 0 0-36-36z" fill="#1296db" p-id="4350"></path><path d="M134 472.4h302.4a35.977 35.977 0 0 0 36-36V134a35.977 35.977 0 0 0-36-36H134a35.977 35.977 0 0 0-36 36v302.4a35.977 35.977 0 0 0 36 36zM170 170h230.4v230.4H170z" fill="#1296db" p-id="4351"></path><path d="M301.1 234.8H269a34.292 34.292 0 0 0-34.3 34.3v32.1a34.291 34.291 0 0 0 34.3 34.3h32.1a34.292 34.292 0 0 0 34.3-34.3v-32.1a34.228 34.228 0 0 0-34.3-34.3z" fill="#1296db" p-id="4352"></path><path d="M315.7 750h3.3a34.292 34.292 0 0 0 34.3-34.3v-3.3a34.291 34.291 0 0 0-34.3-34.3h-3.3a34.292 34.292 0 0 0-34.3 34.3v3.3a34.228 34.228 0 0 0 34.3 34.3z" fill="#1296db" p-id="4353"></path><path d="M700.5 750h3.3a34.292 34.292 0 0 0 34.3-34.3v-3.3a34.291 34.291 0 0 0-34.3-34.3h-3.3a34.292 34.292 0 0 0-34.3 34.3v3.3a34.228 34.228 0 0 0 34.3 34.3z" fill="#1296db" p-id="4354"></path><path d="M890 538.2H134a35.977 35.977 0 0 0-36 36v209.4a108.06 108.06 0 0 0 108 108h36.4a64.666 64.666 0 0 0 22.2 21.9c13.7 8.2 30.8 12.1 52.4 12.1s38.7-4 52.4-12.1a62.964 62.964 0 0 0 22.2-21.9h236.9a64.666 64.666 0 0 0 22.2 21.9c13.7 8.2 30.8 12.1 52.4 12.1s38.7-4 52.4-12.1a62.964 62.964 0 0 0 22.2-21.9h40.4a108.06 108.06 0 0 0 108-108V574.2a36.126 36.126 0 0 0-36.1-36z m-36 245.4a35.977 35.977 0 0 1-36 36h-67a35.972 35.972 0 0 0-35.9 33 73.706 73.706 0 0 1-24.2 0 36.293 36.293 0 0 0-10.4-22.5 35.85 35.85 0 0 0-25.5-10.5H365a35.972 35.972 0 0 0-35.9 33 73.706 73.706 0 0 1-24.2 0 35.972 35.972 0 0 0-35.9-33h-63a35.977 35.977 0 0 1-36-36V610.2h684z" fill="#1296db" p-id="4355"></path></svg>