<?xml version="1.0" standalone="no"?><!DOCTYPE svg PUBLIC "-//W3C//DTD SVG 1.1//EN" "http://www.w3.org/Graphics/SVG/1.1/DTD/svg11.dtd"><svg t="1702702867977" class="icon" viewBox="0 0 1066 1024" version="1.1" xmlns="http://www.w3.org/2000/svg" p-id="20634" xmlns:xlink="http://www.w3.org/1999/xlink" width="208.203125" height="200"><path d="M277.333333 42.666667a42.666667 42.666667 0 0 1 42.666667 42.666666h554.666667a42.666667 42.666667 0 0 1 38.144 61.738667L837.034667 298.666667l75.776 151.594666A42.666667 42.666667 0 0 1 874.666667 512h-554.666667v384h42.666667a42.666667 42.666667 0 1 1 0 85.333333h-170.666667a42.666667 42.666667 0 1 1 0-85.333333h42.666667V85.333333a42.666667 42.666667 0 0 1 42.666666-42.666666z m42.666667 384h485.632l-54.442667-108.928a42.666667 42.666667 0 0 1 0-38.144L805.632 170.666667H320v256z" fill="#000000" p-id="20635"></path></svg>