<?xml version="1.0" standalone="no"?><!DOCTYPE svg PUBLIC "-//W3C//DTD SVG 1.1//EN" "http://www.w3.org/Graphics/SVG/1.1/DTD/svg11.dtd"><svg t="1703568246878" class="icon" viewBox="0 0 1024 1024" version="1.1" xmlns="http://www.w3.org/2000/svg" p-id="2569" xmlns:xlink="http://www.w3.org/1999/xlink" width="200" height="200"><path d="M1023.06 505.74a534 534 0 0 0-193.473333-272.833333q-2.393333-1.773333-4.813334-3.513334l107.646667-107.64a21.333333 21.333333 0 1 0-30.173333-30.173333L788.48 205.333333A534.666667 534.666667 0 0 0 0.94 505.74a21.333333 21.333333 0 0 0 0 12.52 534 534 0 0 0 193.473333 272.833333q2.386667 1.766667 4.813334 3.513334l-107.646667 107.64a21.333333 21.333333 0 0 0 30.173333 30.173333L235.52 818.666667a535.086667 535.086667 0 0 0 107.466667 49.806666 532.266667 532.266667 0 0 0 338 0 535.22 535.22 0 0 0 342.046666-350.193333 21.333333 21.333333 0 0 0 0.026667-12.54zM43.693333 512C108.5 310.7 300.113333 170.666667 512 170.666667c87.613333 0 171.753333 23.946667 244.906667 66.26L647.02 346.806667A211.72 211.72 0 0 0 512 298.666667a212.56 212.56 0 0 0-116.053333 34.3 21.333333 21.333333 0 0 0 23.24 35.786666 170.533333 170.533333 0 0 1 197.406666 8.48l-239.333333 239.333334a170.746667 170.746667 0 0 1-26.78-159.8 21.333333 21.333333 0 0 0-40.373333-13.8 213.7 213.7 0 0 0 36.726666 204l-116.573333 116.6C144.126667 703.153333 77.08 615.706667 43.693333 512z m603.073334-104.593333A169.826667 169.826667 0 0 1 682.666667 512c0 94.106667-76.56 170.666667-170.666667 170.666667a169.826667 169.826667 0 0 1-104.593333-35.9zM512 853.333333c-87.613333 0-171.753333-23.946667-244.906667-66.26l109.886667-109.88a213.333333 213.333333 0 0 0 300.213333-300.213333l116.546667-116.546667c86.133333 60.413333 153.18 147.86 186.566667 251.566667-64.806667 201.333333-256.42 341.333333-468.306667 341.333333z" fill="#1296db" p-id="2570"></path></svg>