<?xml version="1.0" standalone="no"?><!DOCTYPE svg PUBLIC "-//W3C//DTD SVG 1.1//EN" "http://www.w3.org/Graphics/SVG/1.1/DTD/svg11.dtd"><svg t="1709346229551" class="icon" viewBox="0 0 1024 1024" version="1.1" xmlns="http://www.w3.org/2000/svg" p-id="5436" xmlns:xlink="http://www.w3.org/1999/xlink" width="200" height="200"><path d="M248.123077 411.569231C248.123077 514.725415 332.043815 598.646154 435.2 598.646154S622.276923 514.725415 622.276923 411.569231 538.356185 224.492308 435.2 224.492308 248.123077 308.413046 248.123077 411.569231z m295.384615 0A108.433723 108.433723 0 0 1 435.2 519.876923a108.433723 108.433723 0 0 1-108.307692-108.307692 108.433723 108.433723 0 0 1 108.307692-108.307693A108.433723 108.433723 0 0 1 543.507692 411.569231zM762.092308 543.507692c-130.300062 0-236.307692 106.007631-236.307693 236.307693s106.007631 236.307692 236.307693 236.307692 236.307692-106.007631 236.307692-236.307692-106.007631-236.307692-236.307692-236.307693z m0 78.769231c27.726769 0 53.799385 7.231015 76.453415 19.849846L624.419446 856.284554a156.545969 156.545969 0 0 1-19.8656-76.453416c0-86.866708 70.671754-157.538462 157.538462-157.538461z m0 315.076923a156.608985 156.608985 0 0 1-83.385108-23.9616l216.961969-216.961969a156.608985 156.608985 0 0 1 23.9616 83.385108c0 86.866708-70.671754 157.538462-157.538461 157.538461z m-296.125046-51.861661a314.415262 314.415262 0 0 0 37.698953 72.373169 1200.868431 1200.868431 0 0 1-43.716923 37.6832l-24.749292 20.007384-24.749292-20.007384c-3.828185-3.087754-94.8224-76.957538-187.108431-182.902154C96.0512 666.482215 31.507692 535.284185 31.507692 422.722954v-11.169477C31.507692 188.967385 212.613908 7.876923 435.2 7.876923 657.801846 7.876923 838.892308 188.983138 838.892308 411.569231v11.153723c0 15.832615-1.323323 32.043323-3.875446 48.584861a314.840615 314.840615 0 0 0-72.924554-8.538584c-1.811692 0-3.607631 0.031508-5.40357 0.063015a247.335385 247.335385 0 0 0 3.434339-40.109292v-11.153723C760.123077 232.400738 614.368492 86.646154 435.2 86.646154S110.276923 232.400738 110.276923 411.569231v11.153723c0 190.243446 245.114092 420.533169 324.923077 490.464492 8.538585-7.467323 18.967631-16.7936 30.767262-27.695261z" fill="#1f1f1f" p-id="5437"></path></svg>