<?xml version="1.0" standalone="no"?><!DOCTYPE svg PUBLIC "-//W3C//DTD SVG 1.1//EN" "http://www.w3.org/Graphics/SVG/1.1/DTD/svg11.dtd"><svg t="1703597959473" class="icon" viewBox="0 0 1024 1024" version="1.1" xmlns="http://www.w3.org/2000/svg" p-id="5285" xmlns:xlink="http://www.w3.org/1999/xlink" width="200" height="200"><path d="M682.4 306.2H232.2c-21.2 0-38.6 17.4-38.6 38.6v295.6c0 21.2 17.4 38.6 38.6 38.6h6.4c-0.1-1.5-0.2-2.9-0.2-4.4 0-31 25.1-56.2 56.2-56.2s56.2 25.1 56.2 56.2c0 1.5-0.1 2.9-0.2 4.4h273.2c-0.1-1.5-0.2-2.9-0.2-4.4 0-31 25.1-56.2 56.2-56.2 31 0 56.2 25.1 56.2 56.2 0 1.5-0.1 2.9-0.2 4.4h4.6c21.2 0 38.6-17.4 38.6-38.6V402.7c-0.1-53.1-43.5-96.5-96.6-96.5z" fill="#FFFFFD" p-id="5286"></path><path d="M740.3 684h-4.6c-1.4 0-2.7-0.6-3.7-1.6s-1.4-2.4-1.3-3.8c0.1-1.5 0.2-2.8 0.2-4 0-28.2-23-51.2-51.2-51.2s-51.2 23-51.2 51.2c0 1.2 0.1 2.5 0.2 4 0.1 1.4-0.4 2.8-1.3 3.8s-2.3 1.6-3.7 1.6H350.6c-1.4 0-2.7-0.6-3.7-1.6s-1.4-2.4-1.3-3.8c0.1-1.5 0.2-2.8 0.2-4 0-28.2-23-51.2-51.2-51.2s-51.2 23-51.2 51.2c0 1.2 0.1 2.5 0.2 4 0.1 1.4-0.4 2.8-1.3 3.8s-2.3 1.6-3.7 1.6h-6.4c-24 0-43.6-19.6-43.6-43.6V344.8c0-24 19.6-43.6 43.6-43.6h450.2c55.9 0 101.5 45.5 101.5 101.5v237.7c0 24-19.6 43.6-43.6 43.6z m-384.5-10h262.8c0.3-33.4 27.6-60.6 61.2-60.6 33.5 0 60.8 27.1 61.2 60.5 18.2-0.3 33-15.3 33-33.6V402.7c0-50.4-41-91.5-91.5-91.5H232.2c-18.5 0-33.6 15.1-33.6 33.6v295.6c0 18.5 15.1 33.6 33.6 33.6h1.2c0.3-33.4 27.6-60.6 61.2-60.6s60.9 27.1 61.2 60.6z" fill="#5553AA" p-id="5287"></path><path d="M193.7 507.2v133.2c0 21.2 17.4 38.6 38.6 38.6h6.4c-0.1-1.5-0.2-2.9-0.2-4.4 0-31 25.1-56.2 56.2-56.2s56.2 25.1 56.2 56.2c0 1.5-0.1 2.9-0.2 4.4h273.2c-0.1-1.5-0.2-2.9-0.2-4.4 0-31 25.1-56.2 56.2-56.2 31 0 56.2 25.1 56.2 56.2 0 1.5-0.1 2.9-0.2 4.4h4.6c21.2 0 38.6-17.4 38.6-38.6V507.2H193.7z" fill="#B5DDFF" p-id="5288"></path><path d="M740.3 684h-4.6c-1.4 0-2.7-0.6-3.7-1.6s-1.4-2.4-1.3-3.8c0.1-1.5 0.2-2.8 0.2-4 0-28.2-23-51.2-51.2-51.2s-51.2 23-51.2 51.2c0 1.2 0.1 2.5 0.2 4 0.1 1.4-0.4 2.8-1.3 3.8s-2.3 1.6-3.7 1.6H350.6c-1.4 0-2.7-0.6-3.7-1.6s-1.4-2.4-1.3-3.8c0.1-1.5 0.2-2.8 0.2-4 0-28.2-23-51.2-51.2-51.2s-51.2 23-51.2 51.2c0 1.2 0.1 2.5 0.2 4 0.1 1.4-0.4 2.8-1.3 3.8s-2.3 1.6-3.7 1.6h-6.4c-24 0-43.6-19.6-43.6-43.6V507.2c0-2.8 2.2-5 5-5h585.2c2.8 0 5 2.2 5 5v133.2c0.1 24-19.5 43.6-43.5 43.6z m-384.5-10h262.8c0.3-33.4 27.6-60.6 61.2-60.6 33.5 0 60.8 27.1 61.2 60.5 18.2-0.3 33-15.3 33-33.6V512.2H198.7v128.2c0 18.5 15.1 33.6 33.6 33.6h1.2c0.3-33.4 27.6-60.6 61.2-60.6 33.5 0 60.8 27.1 61.1 60.6z" fill="#5553AA" p-id="5289"></path><path d="M294.6 674m-42.7 0a42.7 42.7 0 1 0 85.4 0 42.7 42.7 0 1 0-85.4 0Z" fill="#B5DDFF" p-id="5290"></path><path d="M294.6 721.7c-26.3 0-47.7-21.4-47.7-47.7s21.4-47.7 47.7-47.7 47.7 21.4 47.7 47.7-21.4 47.7-47.7 47.7z m0-85.4c-20.8 0-37.7 16.9-37.7 37.7s16.9 37.7 37.7 37.7 37.7-16.9 37.7-37.7-16.9-37.7-37.7-37.7z" fill="#5553AA" p-id="5291"></path><path d="M333.7 471.7h-78.1v-61.6c0-16.6 13.4-30 30-30h18.1c16.6 0 30 13.4 30 30v61.6z" fill="#B5DDFF" p-id="5292"></path><path d="M333.7 476.7h-78.1c-2.8 0-5-2.2-5-5v-61.6c0-19.3 15.7-35 35-35h18.1c19.3 0 35 15.7 35 35v61.6c0 2.8-2.2 5-5 5z m-73.1-10h68.1v-56.6c0-13.8-11.2-25-25-25h-18.1c-13.8 0-25 11.2-25 25v56.6z" fill="#5553AA" p-id="5293"></path><path d="M446.3 471.7h-96.5v-61.6c0-16.6 13.4-30 30-30h36.5c16.6 0 30 13.4 30 30v61.6z" fill="#B5DDFF" p-id="5294"></path><path d="M446.3 476.7h-96.5c-2.8 0-5-2.2-5-5v-61.6c0-19.3 15.7-35 35-35h36.5c19.3 0 35 15.7 35 35v61.6c0 2.8-2.2 5-5 5z m-91.5-10h86.5v-56.6c0-13.8-11.2-25-25-25h-36.5c-13.8 0-25 11.2-25 25v56.6z" fill="#5553AA" p-id="5295"></path><path d="M777.2 516.3h-46.5c-27.6 0-50-22.4-50-50v-41.7c0-16.6 13.4-30 30-30h66.5v121.7z" fill="#FFEB99" p-id="5296"></path><path d="M777.2 521.3h-46.5c-30.3 0-55-24.7-55-55v-41.7c0-19.3 15.7-35 35-35h66.5c2.8 0 5 2.2 5 5v121.7c0 2.7-2.3 5-5 5z m-66.5-121.7c-13.8 0-25 11.2-25 25v41.7c0 24.8 20.2 45 45 45h41.5V399.6h-61.5z" fill="#5553AA" p-id="5297"></path><path d="M597.8 679h-96.5V406.9c0-16.6 13.4-30 30-30h36.5c16.6 0 30 13.4 30 30V679z" fill="#B5DDFF" p-id="5298"></path><path d="M597.8 684h-96.5c-2.8 0-5-2.2-5-5V406.9c0-19.3 15.7-35 35-35h36.5c19.3 0 35 15.7 35 35V679c0 2.7-2.3 5-5 5z m-91.5-10h86.5V406.9c0-13.8-11.2-25-25-25h-36.5c-13.8 0-25 11.2-25 25V674z" fill="#5553AA" p-id="5299"></path><path d="M578.5 471.7h-57.9v-62.2c0-8.3 6.7-15 15-15h27.9c8.3 0 15 6.7 15 15v62.2z" fill="#FFEB99" p-id="5300"></path><path d="M578.5 476.7h-57.9c-2.8 0-5-2.2-5-5v-62.2c0-11 9-20 20-20h27.9c11 0 20 9 20 20v62.2c0 2.8-2.3 5-5 5z m-52.9-10h47.9v-57.2c0-5.5-4.5-10-10-10h-27.9c-5.5 0-10 4.5-10 10v57.2z" fill="#5553AA" p-id="5301"></path><path d="M578.5 471.7h-57.9v-15.8c0-8.3 6.7-15 15-15h27.9c8.3 0 15 6.7 15 15v15.8z" fill="#B5DDFF" p-id="5302"></path><path d="M578.5 476.7h-57.9c-2.8 0-5-2.2-5-5v-15.8c0-11 9-20 20-20h27.9c11 0 20 9 20 20v15.8c0 2.8-2.3 5-5 5z m-52.9-10h47.9v-10.8c0-5.5-4.5-10-10-10h-27.9c-5.5 0-10 4.5-10 10v10.8z" fill="#5553AA" p-id="5303"></path><path d="M529 511.1m-8.4 0a8.4 8.4 0 1 0 16.8 0 8.4 8.4 0 1 0-16.8 0Z" fill="#5553AA" p-id="5304"></path><path d="M820.9 456.1h-18.7c-3.6 0-6.6-3-6.6-6.6v-48.4c0-3.6 3-6.6 6.6-6.6h18.7c3.6 0 6.6 3 6.6 6.6v48.4c0 3.7-3 6.6-6.6 6.6z" fill="#FFEB99" p-id="5305"></path><path d="M820.9 461.1h-18.7c-6.4 0-11.6-5.2-11.6-11.6v-48.4c0-6.4 5.2-11.6 11.6-11.6h18.7c6.4 0 11.6 5.2 11.6 11.6v48.4c0 6.5-5.2 11.6-11.6 11.6z m-18.6-61.5c-0.9 0-1.6 0.7-1.6 1.6v48.4c0 0.9 0.7 1.6 1.6 1.6H821c0.9 0 1.6-0.7 1.6-1.6v-48.4c0-0.9-0.7-1.6-1.6-1.6h-18.7z" fill="#5553AA" p-id="5306"></path><path d="M778.9 580.9c-14.6 0-26.5-11.9-26.5-26.5s11.9-26.5 26.5-26.5v53z" fill="#FFEB99" p-id="5307"></path><path d="M778.9 585.9c-17.4 0-31.5-14.1-31.5-31.5s14.1-31.5 31.5-31.5c2.8 0 5 2.2 5 5v53c0 2.8-2.2 5-5 5z m-5-52.4c-9.4 2.3-16.5 10.8-16.5 20.9s7 18.6 16.5 20.9v-41.8z" fill="#5553AA" p-id="5308"></path><path d="M255.6 555.2h78.1v34h-78.1z" fill="#FFFFFD" p-id="5309"></path><path d="M333.7 594.2h-78.1c-2.8 0-5-2.2-5-5v-34c0-2.8 2.2-5 5-5h78.1c2.8 0 5 2.2 5 5v34c0 2.8-2.2 5-5 5z m-73.1-10h68.1v-24h-68.1v24z" fill="#5553AA" p-id="5310"></path><path d="M777.4 722.2H193.6c-2.8 0-5-2.2-5-5s2.2-5 5-5h583.8c2.8 0 5 2.2 5 5s-2.3 5-5 5z" fill="#5553AA" p-id="5311"></path><path d="M294.6 674m-13.7 0a13.7 13.7 0 1 0 27.4 0 13.7 13.7 0 1 0-27.4 0Z" fill="#5553AA" p-id="5312"></path><path d="M679.7 674m-42.7 0a42.7 42.7 0 1 0 85.4 0 42.7 42.7 0 1 0-85.4 0Z" fill="#B5DDFF" p-id="5313"></path><path d="M679.7 721.7c-26.3 0-47.7-21.4-47.7-47.7s21.4-47.7 47.7-47.7 47.7 21.4 47.7 47.7-21.4 47.7-47.7 47.7z m0-85.4c-20.8 0-37.7 16.9-37.7 37.7s16.9 37.7 37.7 37.7 37.7-16.9 37.7-37.7-16.9-37.7-37.7-37.7z" fill="#5553AA" p-id="5314"></path><path d="M679.7 674m-13.7 0a13.7 13.7 0 1 0 27.4 0 13.7 13.7 0 1 0-27.4 0Z" fill="#5553AA" p-id="5315"></path><path d="M812 399.6h-34.8c-2.8 0-5-2.2-5-5s2.2-5 5-5H812c2.8 0 5 2.2 5 5s-2.3 5-5 5z" fill="#5553AA" p-id="5316"></path></svg>