<?xml version="1.0" standalone="no"?><!DOCTYPE svg PUBLIC "-//W3C//DTD SVG 1.1//EN" "http://www.w3.org/Graphics/SVG/1.1/DTD/svg11.dtd"><svg t="1702810074960" class="icon" viewBox="0 0 1024 1024" version="1.1" xmlns="http://www.w3.org/2000/svg" p-id="4994" xmlns:xlink="http://www.w3.org/1999/xlink" width="200" height="200"><path d="M725.1 470.9c-32.7 0-65.8-13.4-98.7-39.9-112.1-90.3-199.5 8.2-203.2 12.4-3.5 4.1-9.7 4.6-13.8 1-4.1-3.5-4.6-9.7-1-13.8 1-1.2 103.2-117.2 230.2-14.9 34.8 28 69.2 39.6 102.3 34.3 53.7-8.6 86.7-58.6 87-59.1 2.9-4.5 9-5.8 13.5-2.9s5.8 9 2.9 13.5c-1.5 2.4-38.1 57.8-100.3 67.8-6.2 1.1-12.5 1.6-18.9 1.6z" fill="#2c2c2c" p-id="4995"></path><path d="M391.9 742.5c-52.4 0-95-28.7-97.2-30.2-4.4-3.1-5.6-9.1-2.5-13.6 3.1-4.4 9.1-5.6 13.6-2.6 0.6 0.4 58.5 39.3 117.3 22.5 37.3-10.6 67.6-41.5 89.9-91.8 75.4-170 93.1-219 93.3-219.5 1.8-5.1 7.4-7.7 12.5-5.9 5.1 1.8 7.7 7.4 5.9 12.5-0.7 2-18 49.7-93.8 220.8-24.8 55.9-59.3 90.4-102.5 102.7-12.6 3.7-24.8 5.1-36.5 5.1z" fill="#2c2c2c" p-id="4996"></path><path d="M665.2 842.7c-2.4 0-4.8-0.9-6.7-2.6-3.9-3.7-4.2-9.9-0.5-13.8 0.5-0.5 50.3-54.7 46.1-109-1.8-23.4-13.7-43.8-35.2-60.7-82.4-64.8-123.6-71.2-124-71.3-5.3-0.8-9.1-5.7-8.4-11 0.7-5.3 5.5-9.1 10.9-8.4 1.8 0.2 45.9 6.4 133.6 75.3 26 20.4 40.4 45.6 42.6 74.7 4.8 62.9-49 121.3-51.3 123.8-1.9 2-4.5 3-7.1 3z" fill="#2c2c2c" p-id="4997"></path><path d="M696.9 279.8m-88.8 0a88.8 88.8 0 1 0 177.6 0 88.8 88.8 0 1 0-177.6 0Z" fill="#2c2c2c" p-id="4998"></path><path d="M696.9 378.4c-54.4 0-98.6-44.2-98.6-98.6s44.2-98.6 98.6-98.6c54.3 0 98.6 44.2 98.6 98.6s-44.2 98.6-98.6 98.6z m0-177.6c-43.6 0-79 35.4-79 79s35.5 79 79 79 79-35.4 79-79-35.4-79-79-79zM536.4 270.9H393.1c-5.4 0-9.8-4.4-9.8-9.8s4.4-9.8 9.8-9.8h143.4c5.4 0 9.8 4.4 9.8 9.8-0.1 5.4-4.5 9.8-9.9 9.8zM464.8 332.8h-220c-5.4 0-9.8-4.4-9.8-9.8s4.4-9.8 9.8-9.8h220c5.4 0 9.8 4.4 9.8 9.8s-4.5 9.8-9.8 9.8zM415.9 565.8H266c-5.4 0-9.8-4.4-9.8-9.8s4.4-9.8 9.8-9.8h149.9c5.4 0 9.8 4.4 9.8 9.8s-4.4 9.8-9.8 9.8z" fill="#2c2c2c" p-id="4999"></path><path d="M363.7 621.2h-176c-5.4 0-9.8-4.4-9.8-9.8s4.4-9.8 9.8-9.8h176c5.4 0 9.8 4.4 9.8 9.8s-4.4 9.8-9.8 9.8z" fill="#2c2c2c" p-id="5000"></path></svg>