<?xml version="1.0" standalone="no"?><!DOCTYPE svg PUBLIC "-//W3C//DTD SVG 1.1//EN" "http://www.w3.org/Graphics/SVG/1.1/DTD/svg11.dtd"><svg t="1702714141165" class="icon" viewBox="0 0 1024 1024" version="1.1" xmlns="http://www.w3.org/2000/svg" p-id="7576" xmlns:xlink="http://www.w3.org/1999/xlink" width="200" height="200"><path d="M611 323.4c-19.3 0-35-15.7-35-35s15.7-35 35-35 35 15.7 35 35-15.6 35-35 35z m0-61.5c-14.6 0-26.5 11.9-26.5 26.5s11.9 26.5 26.5 26.5 26.5-11.9 26.5-26.5-11.8-26.5-26.5-26.5zM698 327.6c-19.3 0-35-15.7-35-35s15.7-35 35-35 35 15.7 35 35-15.7 35-35 35z m0-61.6c-14.6 0-26.5 11.9-26.5 26.5S683.4 319 698 319s26.5-11.9 26.5-26.5S712.6 266 698 266zM641.8 246.4c-19.3 0-35-15.7-35-35s15.7-35 35-35 35 15.7 35 35-15.6 35-35 35z m0-61.6c-14.6 0-26.5 11.9-26.5 26.5s11.9 26.5 26.5 26.5 26.5-11.9 26.5-26.5-11.8-26.5-26.5-26.5zM317.1 873.4c-18.8 0-24.8-8.8-28.5-23.7-2.1-8.5-4.8-57.6-0.2-109.9 7.8-88.3 30.5-130.4 48.2-150.2 43-48.2 93.6-56.1 127.1-61.4 13.1-2.1 24.5-3.8 30.9-7.5 6.6-3.7 6.9-14.7 6.4-20.9-2-26.7-23-67.6-43.6-75.4-11.6-4.4-21.5 2.6-39.3 16.4-20.3 15.6-48.1 37.1-95.5 45.9-9.9 1.8-19.5 2.7-28.6 2.7-67.3 0-113.9-45.4-140.5-71.2-1.9-1.8-3.7-3.6-5.4-5.2-17.8-17.1-18.8-30.1-16.5-38.1 3.2-11.2 14.7-19.4 32.2-22.9 15.6-3.2 29.4 9.7 45.2 24.7 17.3 16.3 38.9 36.6 70 43.3 7 1.5 14.1 2.2 21.1 2.2 31.7 0 61.7-14.2 79.8-28.4 10-7.9 13.3-13.5 13.4-14.9-0.1-2.7-9.6-10-16.5-15.3-17.8-13.6-41.8-32-48-58.6 0-0.1 0-0.2-0.1-0.3-4-26.2 14-51.4 40.2-56 11.2-2 21.4 0.5 30.1 7.4 26.1 20.6 30.3 72.7 30.3 73.2 0.2 2.7 11.9 6.2 25.6 6.6 26.4-12.4 52.6-18.9 77.9-19.3 22-0.4 44.1 3.8 65.5 12.4 39 15.8 69.4 43.4 91.5 63.6 5.5 5 10.6 9.7 15.2 13.5 27 22.8 41.1 43.9 40.8 61.2-0.1 8.3-3.7 15.3-10.2 20.5-10.8 8.5-21 8.9-35.3 1.5-14.6-7.6-35.7-24.7-70.7-57.2-52.4-48.8-102-47.7-120.6-45.1 28.7 28.9 55.8 78.2 55.6 122.9-0.2 26.2-9.6 47.7-28 63.9-23.2 20.3-48.4 24.2-72.7 27.9-37.4 5.7-72.8 11.1-98 77.4-15.8 63.9-13.9 109-12.7 138.8 0.3 6.7 0.5 12.4 0.5 17.5 0 30.3-12.8 37-33.4 37.9-1.2 0.1-2.2 0.1-3.2 0.1z m133.3-458.7c3.2 0 6.5 0.6 9.8 1.9 15.3 5.8 27.2 23.7 32.9 33.9 9 16 15.1 34.3 16.2 48.9 1.4 18.2-5.1 25.8-10.7 29-7.8 4.4-19.2 6.2-33.7 8.4-34.2 5.4-81.1 12.8-122.1 58.7-30.5 34.1-41.8 97.8-46 145.2-4.8 54.6-1.4 101.3 0 107.1 3.1 12.3 6.3 18 23 17.2 17.5-0.8 25.3-5.3 25.3-29.4 0-4.9-0.2-10.6-0.5-17.1-1.2-30.4-3.1-76.3 13-141.7 0-0.2 0.1-0.3 0.2-0.5 27-71.2 66.5-77.2 104.8-83.1 24.2-3.7 47.1-7.2 68.4-25.9 16.5-14.5 24.9-33.8 25.1-57.5 0.3-44.9-30.1-96.5-58.8-122.3-1.1-1-1.6-2.6-1.3-4.1 0.3-1.5 1.5-2.7 2.9-3.1 0.7-0.2 17.1-5 42.3-1.8 23 3 58 13.6 94.2 47.3 72.2 67.2 82.6 65 94.9 55.3 4.5-3.5 6.9-8.2 7-13.9 0.1-8.3-4.6-26.5-37.8-54.5-4.7-4-9.9-8.7-15.4-13.7-43.9-40-117.3-106.8-226.5-55-0.6 0.3-1.2 0.4-1.9 0.4-8-0.2-34.1-1.7-34.9-14.6-0.6-10.1-6.9-51.2-27.1-67-6.9-5.4-14.5-7.3-23.4-5.7-21.6 3.9-36.5 24.6-33.3 46.2 5.6 23.6 28.1 40.8 44.6 53.5 11.8 9 19.5 15 19.9 21.6 0.3 6.4-7.3 14.2-13.7 19.6-15.8 13.4-49.6 32.7-87.9 32.7-7.5 0-15.2-0.7-22.9-2.4-33.4-7.2-55.9-28.4-74-45.4-14.7-13.9-26.4-24.8-37.7-22.5-14 2.9-23.4 9-25.7 17-2.4 8.2 2.5 18.4 14.2 29.6 1.7 1.7 3.5 3.4 5.5 5.3 15.2 14.7 35.9 34.9 62.9 49.7 32.1 17.6 64.4 23 98.7 16.6 45.4-8.4 72.2-29.2 91.9-44.3 13.7-10.8 25.1-19.6 37.6-19.6z" fill="#717071" p-id="7577"></path><path d="M837.6 755c-23.3 0-53.4-4.6-88-13.6-4.8-1.2-9.4-2.4-13.9-3.6-74.1-19.2-114.9-29.7-173.9-113.6-7.7-10.9-12-23.5-12.4-36.4-0.4-11.5 2.3-19.4 8-23.4 5.2-3.8 12.5-3.9 21.5-0.6 14.1 5.2 23.3 16.9 34 30.3 44.7 56.4 85.8 68.7 115.8 77.7 37.7 11.3 68 17.6 92.4 22.6 42.4 8.8 65.8 13.6 66.4 35.7 0.2 5.9-2.4 11.2-7.5 15.2-8.1 6.5-22.8 9.7-42.4 9.7zM567.4 569.8c-1.9 0-3.6 0.4-5 1.4-3.2 2.3-4.7 7.9-4.5 16.3 0.4 11.2 4.1 22.3 10.8 31.8 57.2 81.4 97 91.6 169.1 110.3 4.5 1.2 9.1 2.4 13.9 3.6 72 18.9 110.8 15.2 123.1 5.4 3-2.4 4.4-5.1 4.3-8.3-0.4-14.7-17.5-18.9-59.6-27.6-24.5-5.1-55-11.4-93.1-22.8-73.7-22.1-100.5-55.9-120.1-80.6-10.3-13-18.4-23.2-30.3-27.6-2.6-1-5.7-1.9-8.6-1.9z" fill="#717071" p-id="7578"></path></svg>