<?xml version="1.0" standalone="no"?><!DOCTYPE svg PUBLIC "-//W3C//DTD SVG 1.1//EN" "http://www.w3.org/Graphics/SVG/1.1/DTD/svg11.dtd"><svg t="1710051144322" class="icon" viewBox="0 0 1024 1024" version="1.1" xmlns="http://www.w3.org/2000/svg" p-id="4250" xmlns:xlink="http://www.w3.org/1999/xlink" width="200" height="200"><path d="M439.323 775.478c-49.28 0-97.098-9.657-142.126-28.7-43.48-18.389-82.523-44.706-116.044-78.225s-59.841-72.561-78.23-116.04c-19.044-45.027-28.7-92.844-28.7-142.122 0-49.285 9.656-97.105 28.7-142.133 18.388-43.48 44.71-82.52 78.231-116.04C214.673 118.705 253.717 92.387 297.198 74c45.027-19.04 92.846-28.694 142.125-28.694 49.28 0 97.1 9.654 142.127 28.694 43.481 18.386 82.526 44.705 116.045 78.22 33.52 33.52 59.842 72.56 78.23 116.04 19.043 45.028 28.7 92.848 28.7 142.133 0 49.278-9.657 97.095-28.702 142.123-18.388 43.477-44.708 82.52-78.228 116.039S624.93 728.392 581.45 746.78c-45.028 19.043-92.847 28.698-142.128 28.698z m0-676.961c-171.975 0-311.888 139.906-311.888 311.875s139.913 311.874 311.888 311.874 311.888-139.908 311.888-311.874S611.3 98.517 439.323 98.517z m451.355 846.218c-22.122 0-42.904-8.562-58.541-24.116L674.673 767.975l37.039-38.206L869.6 882.828c5.607 5.606 13.092 8.693 21.078 8.693 7.983 0 15.465-3.088 21.07-8.691 5.617-5.622 8.717-13.127 8.717-21.123 0-7.981-3.092-15.463-8.703-21.068l-0.302-0.307-152.746-157.563 38.208-37.035L949.534 803.16c15.571 15.638 24.145 36.423 24.145 58.55 0 22.195-8.626 43.054-24.287 58.736-15.669 15.665-36.515 24.288-58.714 24.288z" fill="" p-id="4251"></path><path d="M281.015 568.755c-42.34-42.321-65.652-98.585-65.643-158.421 0.008-59.819 23.319-116.075 65.637-158.408l37.635 37.62c-66.607 66.629-66.61 175-0.007 241.577l-37.622 37.632z" fill="1f1f1f" p-id="4252"></path></svg>