<?xml version="1.0" standalone="no"?><!DOCTYPE svg PUBLIC "-//W3C//DTD SVG 1.1//EN" "http://www.w3.org/Graphics/SVG/1.1/DTD/svg11.dtd"><svg t="1709456211428" class="icon" viewBox="0 0 1024 1024" version="1.1" xmlns="http://www.w3.org/2000/svg" p-id="1926" xmlns:xlink="http://www.w3.org/1999/xlink" width="200" height="200"><path d="M1021.781 234.837H382.805A383.204 383.204 0 0 0 0 617.586v126.52h180.907a94.948 94.948 0 0 1-3.243-10.58A93.924 93.924 0 0 1 175.388 723a98.987 98.987 0 0 1-1.65-15.929 103.14 103.14 0 0 1 58.71-92.786H23.552a361.984 361.984 0 0 1 361.472-358.4h94.322v358.4H321.82a103.14 103.14 0 0 1 58.71 92.786 98.987 98.987 0 0 1-1.65 15.929 93.924 93.924 0 0 1-2.276 10.524 94.948 94.948 0 0 1-3.242 10.582h340.65a109 109 0 0 1-3.3-10.582 107.918 107.918 0 0 1-2.218-10.524 98.987 98.987 0 0 1-1.65-15.929 103.14 103.14 0 0 1 58.71-92.786H500.508v-358.4h298.383v348.9a104.732 104.732 0 0 1 11.377-1.138c3.357 0 6.543 0.683 9.842 0.967V255.886h180.566v358.4h-145.75a103.14 103.14 0 0 1 58.71 92.786 98.987 98.987 0 0 1-1.65 15.929 107.943 107.943 0 0 1-2.219 10.524 109 109 0 0 1-3.3 10.582h117.59v-509.27z" p-id="1927"></path><path d="M461.198 596.594V419.897h-72.874v103.822h-114.86v72.875h187.734zM707.868 419.897v103.822H593.01v72.875h187.733V419.897zM277.106 624.81a82.318 82.318 0 0 0-82.205 82.262 82.261 82.261 0 0 0 1.593 15.929 93.924 93.924 0 0 0 3.13 10.524 92.956 92.956 0 0 0 4.493 10.582 82.09 82.09 0 0 0 72.989 45.113 81.977 81.977 0 0 0 72.931-45.113 76.117 76.117 0 0 0 4.495-10.582 83.228 83.228 0 0 0 3.128-10.524 82.261 82.261 0 0 0 1.593-15.929 82.261 82.261 0 0 0-82.147-82.261zM820.053 625.835a79.19 79.19 0 0 0-9.841-1.024 81.75 81.75 0 0 0-11.378 1.137 82.09 82.09 0 0 0-70.827 81.124 82.261 82.261 0 0 0 1.593 15.929 74.752 74.752 0 0 0 3.129 10.524 76.117 76.117 0 0 0 4.494 10.582 81.977 81.977 0 0 0 72.932 45.113 81.977 81.977 0 0 0 72.931-45.113 76.117 76.117 0 0 0 4.494-10.582 83.228 83.228 0 0 0 3.13-10.524 82.261 82.261 0 0 0 1.592-15.929 81.92 81.92 0 0 0-72.249-81.237z" p-id="1928"></path></svg>