<?xml version="1.0" standalone="no"?><!DOCTYPE svg PUBLIC "-//W3C//DTD SVG 1.1//EN" "http://www.w3.org/Graphics/SVG/1.1/DTD/svg11.dtd"><svg t="1702702522187" class="icon" viewBox="0 0 1024 1024" version="1.1" xmlns="http://www.w3.org/2000/svg" p-id="15202" xmlns:xlink="http://www.w3.org/1999/xlink" width="200" height="200"><path d="M212.7 592.8c-30.6 0-55.3 24.8-55.3 55.4 0 30.6 24.8 55.3 55.3 55.3 30.6 0 55.4-24.8 55.4-55.3C268 617.6 243.3 592.8 212.7 592.8zM212.7 684c-19.8 0-35.9-16-35.9-35.8 0-19.8 16.1-35.9 35.9-35.9 19.8 0 35.9 16 35.9 35.9C248.5 668 232.5 684 212.7 684z" p-id="15203" fill="#2c2c2c"></path><path d="M381 592.8c-30.6 0-55.3 24.8-55.3 55.4 0 30.6 24.8 55.3 55.3 55.3 30.6 0 55.4-24.8 55.4-55.3C436.4 617.6 411.6 592.8 381 592.8zM381 684c-19.8 0-35.9-16-35.9-35.8 0-19.8 16.1-35.9 35.9-35.9 19.8 0 35.9 16 35.9 35.9C416.9 668 400.9 684 381 684z" p-id="15204" fill="#2c2c2c"></path><path d="M736.5 592.8c-30.6 0-55.3 24.8-55.3 55.4 0 30.6 24.8 55.3 55.3 55.3 30.6 0 55.4-24.8 55.4-55.3C791.9 617.6 767.1 592.8 736.5 592.8zM736.5 684c-19.8 0-35.9-16-35.9-35.8 0-19.8 16.1-35.9 35.9-35.9 19.8 0 35.9 16 35.9 35.9C772.4 668 756.3 684 736.5 684z" p-id="15205" fill="#2c2c2c"></path><path d="M932.9 395.6c-17.7-21.9-35.9-37.8-74.8-37.4-8.5 0.1-28.1 9.4-28.1 9.4s-50.9-44.7-74.8-46.8L137.9 320.8c0 0-13.4-2.8-18.7 9.4L81.7 433l0 196.4c0 0-1.3 9.5 9.4 9.4 0.4 0 17.9 0 47.4 0.1 4.6-36.9 36-65.5 74.2-65.5 38.2 0 69.6 28.6 74.2 65.6 6.6 0 13.2 0 20 0 4.6-36.9 36-65.6 74.2-65.6 38.2 0 69.6 28.6 74.2 65.6 69.9 0 141.6 0 207 0 4.6-36.9 36-65.5 74.2-65.5 38.2 0 69.6 28.6 74.2 65.5 63 0 94.2 0 94.2 0s19.5-27 18.7-93.5c-0.6-49.6-42.6-123.7-74.8-159 0 0 17.6-13 28.1-9.4 10.5 3.7 50.5 62.9 65.5 56.1C942.3 433 943.5 408.7 932.9 395.6zM633.6 470.4 119.1 470.4l28.1-112.2 486.4 0L633.6 470.4zM876.8 498.5l0 56.1c0 0-49.6-37.3-93.5-56.1-62-26.6-131-28.1-131-28.1L652.3 358.2l112.2 0c0 0 32.8 18.1 65.5 56.1C856.8 445.5 876.3 498.8 876.8 498.5z" p-id="15206" fill="#2c2c2c"></path></svg>