<?xml version="1.0" standalone="no"?><!DOCTYPE svg PUBLIC "-//W3C//DTD SVG 1.1//EN" "http://www.w3.org/Graphics/SVG/1.1/DTD/svg11.dtd"><svg t="1709961675809" class="icon" viewBox="0 0 1024 1024" version="1.1" xmlns="http://www.w3.org/2000/svg" p-id="4442" xmlns:xlink="http://www.w3.org/1999/xlink" width="200" height="200"><path d="M256 343.472a19.2 19.2 0 0 1 19.2 19.2V768a66.128 66.128 0 0 0 66.144 66.128h341.328A66.128 66.128 0 0 0 748.8 768V362.672a19.2 19.2 0 1 1 38.4 0V768a104.528 104.528 0 0 1-104.528 104.528H341.328A104.528 104.528 0 0 1 236.8 768V362.672a19.2 19.2 0 0 1 19.2-19.2zM405.344 260.048a19.2 19.2 0 0 0 19.2-19.2 66.128 66.128 0 0 1 66.128-66.144h42.656a66.128 66.128 0 0 1 66.144 66.144 19.2 19.2 0 1 0 38.4 0 104.528 104.528 0 0 0-103.04-104.528h-45.648a104.544 104.544 0 0 0-103.04 104.528 19.2 19.2 0 0 0 19.2 19.2z" fill="#000000" p-id="4443"></path><path d="M172.8 266.672a19.2 19.2 0 0 1 19.2-19.2h640a19.2 19.2 0 1 1 0 38.4H192a19.2 19.2 0 0 1-19.2-19.2zM426.672 380.8a19.2 19.2 0 0 1 19.2 19.2v320a19.2 19.2 0 1 1-38.4 0V400a19.2 19.2 0 0 1 19.2-19.2zM597.344 380.8a19.2 19.2 0 0 1 19.2 19.2v320a19.2 19.2 0 0 1-38.4 0V400a19.2 19.2 0 0 1 19.2-19.2z" fill="#000000" p-id="4444"></path></svg>