<?xml version="1.0" standalone="no"?><!DOCTYPE svg PUBLIC "-//W3C//DTD SVG 1.1//EN" "http://www.w3.org/Graphics/SVG/1.1/DTD/svg11.dtd"><svg t="1702713997815" class="icon" viewBox="0 0 1024 1024" version="1.1" xmlns="http://www.w3.org/2000/svg" p-id="4806" xmlns:xlink="http://www.w3.org/1999/xlink" width="200" height="200"><path d="M784.2162500000001 504.02333333333337c-8.0653125-9.825000000000001-19.6125-17.0578125-33.3975-20.9175-40.989375-11.476875000000001-94.7971875-38.94375-118.3725-104.61562500000001-11.390625-31.731562500000003-30.336562500000003-55.43249999999999-56.385937500000004-70.58437500000001 49.815000000000005-8.390625 87.8878125-51.821250000000006 87.8878125-103.98656249999999 0-58.149375000000006-47.308125000000004-105.459375-105.459375-105.459375S453.03125 145.77083333333337 453.03125 203.91927083333337c0 34.2140625 16.381875 64.670625 41.709375 83.95125a277.228125 277.228125 0 0 0-5.6784375-0.059062500000000004c-7.985625000000001 0-32.287499999999994 0-120.51562500000001 54.8653125-42.283125 26.294062499999995-79.520625 52.956562500000004-79.891875 53.221875000000004-0.391875 0.2821875-0.7715624999999999 0.583125-1.134375 0.9028125-20.083124999999995 17.721562499999997-32.2096875 65.18625-36.49125 84.7715625-8.656875 39.6028125-10.645312500000001 75.9159375-5.3175 97.138125 4.6059375000000005 18.350625 14.4234375 24.285 21.849375000000002 26.033437499999998 3.0862499999999997 0.725625 6.134062499999999 1.0940624999999997 9.06 1.0940624999999997 14.5659375 0 26.175-8.608125000000001 34.5065625-25.5853125 5.9934375-12.211874999999997 10.325624999999999-28.153125000000003 15.342187499999998-46.6096875 3.133125-11.530312499999999 6.374062499999999-23.4515625 10.378125-35.86875 10.848749999999999-33.631875 51.07125-60.95343749999999 75.55687499999999-74.926875 0.15937500000000002 21.616875-1.3575 54.3065625-10.5084375 75.66-16.2009375 37.8028125-31.510312499999998 79.3996875-40.7653125 171.946875-6.2943750000000005 62.94562499999999-25.150312500000002 82.4821875-59.3803125 117.94500000000001-11.758125 12.1809375-25.085625 25.990312499999998-40.0753125 43.70625-38.5134375 45.51375-36.755625 76.2871875-28.5 94.0865625 9.307500000000001 20.07 29.8828125 29.052187500000002 46.145625 29.05125 2.049375 0 4.0875-0.133125 6.0609375-0.3965625 6.973125-0.9290625 17.6821875-5.152500000000001 44.23875-29.424374999999998 16.1634375-14.77125 35.4684375-34.486875 55.83-57.017812500000005 33.42375-36.9825 75.63375-88.5196875 84.598125-112.05 8.863125-23.265 13.8075-54.73125 16.40625-77.2078125l38.379375 32.5640625c45.4734375 38.584687499999994 55.91437499999999 94.1671875 68.004375 158.5275 2.5912499999999996 13.7971875 5.270625 28.063125 8.38125 42.6815625 3.635625 17.08875 8.4721875 29.775000000000002 14.78625 38.7825 9.18375 13.102500000000001 19.820625 15.8521875 27.1265625 15.85125 28.8121875-0.001875 49.668749999999996-41.964375000000004 49.668749999999996-70.25250000000001 0-4.6471875 0.11249999999999999-10.490625 0.24375000000000002-17.2575 0.95625-49.26656249999999 2.7365625000000002-140.97-30.401249999999997-182.8284375-10.0903125-12.744375-22.3940625-25.584374999999994-35.420624999999994-39.1790625-29.27625-30.553125-62.458125-65.1815625-62.458125-94.3528125 0-24.545624999999998 9.3834375-50.7009375 17.7065625-69.07125 13.098749999999999 17.259375 32.653124999999996 30.76875 49.47843749999999 40.159687500000004 29.5284375 16.48125 67.014375 29.240625 100.27125000000001 34.131562499999994 5.2425 0.7715624999999999 10.2890625 1.1625 14.998125 1.1625 31.63125-0.0046875 45.2390625-17.0409375 47.428125-32.98125 1.5440625000000001-11.2434375-2.1599999999999997-22.985625-10.4315625-33.061875zM481.8125 203.92020833333333c0-42.28125 34.396874999999994-76.68 76.67812500000001-76.68s76.67812500000001 34.3978125 76.67812500000001 76.6790625-34.396874999999994 76.67812500000001-76.67812500000001 76.67812500000001-76.67812500000001-34.396874999999994-76.67812500000001-76.67812500000001z m284.323125 329.251875c-0.82125 5.98125-10.3115625 8.1140625-18.91875 8.115-3.3112500000000002 0-6.946875-0.2878124999999999-10.807500000000001-0.855-59.9925-8.821875-132.3815625-45.147187499999994-139.4634375-80.555625a14.390625 14.390625 0 0 0-26.338125-4.7653125c-1.4146874999999999 2.2771874999999997-34.622812499999995 56.3821875-34.622812499999995 108.57468749999998 0 40.7334375 35.8190625 78.114375 70.4578125 114.26343749999998 12.543750000000001 13.0903125 24.389999999999993 25.453125 33.6365625 37.1315625 26.7271875 33.761250000000004 25.014374999999998 122.00062499999999 24.1921875 164.40562500000001-0.1340625 6.916875-0.2503125 12.890625-0.2503125 17.81625 0 8.7975-3.5212499999999998 20.337187500000002-8.970937500000002 29.4-5.5171874999999995 9.1753125-10.636875 12.0496875-11.905312499999997 12.07125-1.5975-0.4275-8.489999999999998-7.00125-13.774687499999999-31.843125-3.0384375-14.2809375-5.686875-28.374374999999993-8.24625-42.0046875-12.5559375-66.84-24.414375-129.973125-77.6690625-175.1596875l-59.51156249999999-50.49375a14.3840625 14.3840625 0 0 0-14.981250000000001-2.2528125 14.3896875 14.3896875 0 0 0-8.6953125 12.405c-0.034687499999999996 0.609375-3.635625 61.303125-17.1140625 96.68437499999999-5.774062499999999 15.156562500000001-38.159062500000005 57.5165625-77.00437500000001 100.72312499999998-48.3665625 53.795625-77.57625 77.2190625-84.87 79.5234375-7.0415625 0.800625-17.6634375-2.9343749999999997-21.994687499999998-12.27375-6.586875-14.203125 2.2921875-37.305 24.3609375-63.38625 14.38125-16.996875 27.361875-30.444374999999997 38.813437500000006-42.309375 36.1434375-37.4465625 60.021562499999995-62.184374999999996 67.310625-135.069375 8.859375-88.59843749999999 22.71375-126.451875 38.5809375-163.47375000000002 17.43375-40.67999999999999 12.168750000000001-108.5559375 11.93625-111.425625a14.390625 14.390625 0 0 0-20.2134375-11.975624999999999c-3.6993750000000003 1.65375-90.84 41.191875-110.615625 102.4940625-4.212187500000001 13.057500000000001-7.69125 25.860937500000002-10.7615625 37.156875-6.4921875 23.8875-13.850624999999999 50.9634375-22.075312499999995 50.9634375-0.3459375 0-0.7190625-0.025312499999999995-1.1184375-0.07875-1.7971874999999997-3.0609375-4.9350000000000005-13.8271875-3.6374999999999993-37.87125 2.71875-50.371874999999996 20.953125-107.6428125 34.237500000000004-120.3028125 5.1703125-3.6825 39.25593749999999-27.818437499999998 77.64093749999999-51.688125 73.33125-45.60187499999999 98.0803125-50.5246875 105.316875-50.5246875 61.8009375 0 98.7553125 22.7578125 116.296875 71.62125 12.3328125 34.355625 32.956875000000004 62.93625 61.29656249999999 84.94874999999999 21.7275 16.875937500000003 47.433749999999996 29.546249999999993 76.40625 37.6575 16.426875 4.60125 23.956875 15.9375 23.076562499999998 22.35375z" fill="#2c2c2c" p-id="4807"></path></svg>