<?xml version="1.0" standalone="no"?><!DOCTYPE svg PUBLIC "-//W3C//DTD SVG 1.1//EN" "http://www.w3.org/Graphics/SVG/1.1/DTD/svg11.dtd"><svg t="1709346663968" class="icon" viewBox="0 0 1024 1024" version="1.1" xmlns="http://www.w3.org/2000/svg" p-id="13541" xmlns:xlink="http://www.w3.org/1999/xlink" width="200" height="200"><path d="M462.656 312.704c-50.368 0-98.944-30.72-120.576-81.408C313.6 164.288 342.848 87.552 407.36 60.096c64.512-27.52 140.032 4.736 168.576 71.616l0 0c28.416 66.944-0.832 143.68-65.28 171.136C495.04 309.504 478.72 312.704 462.656 312.704zM455.552 114.304c-7.808 0-15.616 1.472-23.104 4.672-32 13.632-46.144 52.736-31.488 87.168C415.616 240.64 453.632 257.536 485.568 244.032c32-13.632 46.08-52.736 31.488-87.168l0 0C505.792 130.432 480.96 114.304 455.552 114.304z" p-id="13542"></path><path d="M313.728 989.248c-15.616 0-32.576-2.752-50.688-8.256-30.848-9.28-50.048-38.528-52.608-80.256-2.496-41.984 8.384-89.792 34.368-150.528 15.36-36.032 35.264-69.44 59.072-99.456 11.264-14.272 26.688-32.64 45.248-48.576C352.96 598.848 357.248 595.84 361.6 592.832 364.8 590.592 369.6 587.264 370.752 585.664c0.256-1.344 0.128-8 0-12.48C370.56 550.08 369.6 533.056 368.704 516.032 367.872 501.44 367.104 486.912 366.72 472.32l-0.832-15.36C364.416 433.856 362.624 404.992 374.976 380.032 383.36 363.2 394.496 347.072 408.128 332.096c10.112-11.072 21.184-36.48 32.96-45.824C447.424 280.64 454.592 320 464.512 256L464.64 256l85.056-11.008 12.416 15.36c64.512 40.832 108.48 81.024 142.336 122.048 3.264 3.904 6.656 9.536 10.048 13.312 7.552 8.32 15.04 17.664 21.44 27.008 12.672 18.688 17.728 39.744 22.272 57.856l2.56 10.496c5.696 21.44 12.032 46.656 15.744 72.64 1.856 13.12 7.744 53.312-18.56 82.816-13.888 15.488-32 23.36-50.56 20.608-35.84-4.224-59.008-40.768-67.264-56.32L633.728 598.784C628.864 589.632 624 580.416 619.008 571.328L618.752 583.552C618.944 597.312 619.2 606.528 616.96 615.936c-8.512 35.264-34.88 62.4-37.888 65.344-11.52 11.52-24.96 20.736-36.864 28.864l-11.776 8.192c-6.592 4.736-13.312 9.152-19.968 13.44-13.184 8.512-24.512 15.808-33.28 25.728-8.576 9.6-15.552 23.936-22.272 37.824l-3.136 6.464c-11.776 23.744-22.464 48-32.832 72.32-6.272 14.656-12.416 29.44-18.496 44.16l-3.328 8.832c-7.36 19.84-18.496 49.728-55.936 58.944C332.608 988.16 323.456 989.248 313.728 989.248zM487.04 346.24 481.088 351.36c-9.216 7.36-17.792 15.232-25.6 23.808C445.632 385.984 438.08 396.864 432.256 408.576 427.584 418.048 428.8 437.312 429.824 452.864 430.208 459.136 430.592 465.216 430.72 470.848c0.32 13.888 1.088 27.776 1.856 41.664C433.536 530.624 434.56 548.608 434.688 566.72c0.384 18.304 0.896 38.272-11.84 56.128-7.616 10.624-17.088 17.216-24.704 22.528-2.56 1.728-5.056 3.456-7.36 5.376-14.4 12.352-26.688 27.072-36.8 39.808-20.224 25.536-37.184 54.08-50.304 84.8-21.632 50.56-31.232 90.304-29.312 121.472 0.896 14.4 4.8 22.144 7.168 22.848 17.792 5.44 33.6 6.848 44.416 4.16 3.328-0.832 4.864-1.984 11.2-19.072l4.096-10.688c6.144-15.104 12.416-30.272 18.88-45.312 10.816-25.344 22.016-50.56 34.24-75.392l3.008-6.144c8.192-16.96 17.536-36.032 31.936-52.224 14.528-16.448 31.488-27.456 46.464-37.056 5.696-3.776 11.52-7.424 17.216-11.584l13.12-9.152c9.664-6.656 19.712-13.248 27.776-21.312 4.48-4.608 27.904-20.032 31.488-35.072C565.568 599.488 576 594.624 576 591.424L576 581.568 567.552 499.2c0-11.904-5.376-28.736 6.272-42.304l7.808-12.16 17.664-0.32C611.52 445.312 622.08 452.48 629.632 464.064c3.84 7.104 6.272 10.944 8.96 14.848l5.568 8.384c16.832 26.112 31.424 53.696 46.144 81.472l6.336 11.968c4.864 9.216 10.944 16.448 15.296 20.224 2.816-6.016 3.136-15.296 1.216-28.032-3.136-22.08-8.576-43.776-14.272-65.28l-2.88-11.328c-3.456-14.144-6.72-27.52-12.992-36.672C678.4 452.736 672.768 446.72 667.2 440.576c-4.032-4.48-8.128-8.96-11.968-13.568C627.968 393.984 592.128 363.776 540.288 329.92L487.04 346.24z" p-id="13543"></path><path d="M697.92 983.744c-27.968 0-55.744-11.392-73.984-32.96-17.152-20.928-33.28-41.984-48.448-63.68-22.336-31.744-40.256-60.8-54.72-88.896-4.032-7.872-7.936-15.872-11.456-24l58.752-25.472c2.944 6.848 6.144 13.504 9.6 20.096 13.12 25.408 29.568 52.032 50.24 81.408 14.336 20.352 29.44 40.192 45.248 59.584 9.408 11.072 30.4 13.44 43.52 4.544 6.272-4.16 6.656-7.104 6.848-8.192 0.512-3.072 0.64-15.168-19.712-42.304l-118.528-158.08 51.264-38.4 118.464 158.08c25.792 34.368 36.096 64.256 31.616 91.264-2.368 14.144-10.176 34.432-34.112 50.624C736.192 978.432 716.992 983.744 697.92 983.744z" p-id="13544"></path><path d="M244.224 612.224c-13.056 0-26.048-2.56-37.312-8.832C189.248 593.536 178.624 576.448 177.024 555.136 173.376 507.008 201.408 473.984 222.848 453.312c16.832-16.256 33.472-26.048 48.128-34.624 13.632-8 25.472-14.976 36.992-26.56l45.44 45.056C336 454.656 318.656 464.896 303.36 473.856 290.112 481.664 278.656 488.384 267.264 499.392 247.232 518.72 239.552 533.504 240.832 550.4 241.92 549.312 256.128 548.032 265.536 543.104 275.904 537.728 287.36 526.592 298.496 515.776c5.888-5.76 11.712-11.392 17.472-16.448l42.112 48.192C353.152 551.872 348.16 556.672 343.104 561.6c-13.76 13.376-29.312 28.544-48 38.272C281.408 607.04 262.784 612.224 244.224 612.224z" p-id="13545"></path></svg>