<?xml version="1.0" standalone="no"?><!DOCTYPE svg PUBLIC "-//W3C//DTD SVG 1.1//EN" "http://www.w3.org/Graphics/SVG/1.1/DTD/svg11.dtd"><svg t="1702702687066" class="icon" viewBox="0 0 1024 1024" version="1.1" xmlns="http://www.w3.org/2000/svg" p-id="17498" data-spm-anchor-id="a313x.search_index.0.i3.42093a81vHx2P5" xmlns:xlink="http://www.w3.org/1999/xlink" width="200" height="200"><path d="M842.752 631.296h-101.888c-12.8 0-23.04 10.24-23.04 23.04s10.24 23.04 23.04 23.04h101.888c29.696 0 56.32-17.92 67.584-45.568l19.968-51.2h25.088c12.8 0 23.04-10.24 23.04-23.04s-10.24-23.04-23.04-23.04h-6.656l28.16-71.68c4.608-11.776-1.024-25.088-12.8-29.696-11.776-4.608-25.088 1.024-29.696 12.8l-34.816 88.576h-215.04l28.16-71.68c4.608-11.776-1.024-25.088-12.8-29.696-11.776-4.608-25.088 1.024-29.696 12.8l-34.816 88.576h-215.04l28.16-71.68c4.608-11.776-1.024-25.088-12.8-29.696-11.776-4.608-25.088 1.024-29.696 12.8l-34.816 88.576h-250.88C142.848 448 221.184 384 314.368 384h642.048c12.8 0 23.04-10.24 23.04-23.04s-10.24-23.04-23.04-23.04h-268.8c1.536-5.12 2.048-10.24 2.048-15.872 0-34.304-27.648-61.952-61.952-61.952H599.04V138.24c0-17.92-14.336-32.256-32.256-32.256h-122.88c-17.92 0-32.256 14.336-32.256 32.256v122.368h-28.672c-34.304 0-61.952 27.648-61.952 61.952 0 5.632 1.024 10.752 2.048 15.872h-10.24c-124.928 0-228.864 93.696-244.224 214.528v1.024c0 1.536-0.512 2.56-0.512 4.096-1.024 8.704-1.536 17.92-1.536 27.136v17.408h-1.536c-10.752 0-19.456 8.704-19.456 19.456v73.728c0 10.752 8.704 19.456 19.456 19.456h2.048c3.584 34.816 32.768 61.44 68.608 61.44h26.112c-1.536 3.072-2.56 5.632-3.584 8.704h-30.72c-12.8 0-23.04 10.24-23.04 23.04s10.24 23.04 23.04 23.04h25.6c6.656 48.64 48.128 86.016 98.304 86.016S343.04 880.64 349.184 832h393.728c6.656 48.64 48.128 86.016 98.304 86.016s91.648-37.376 98.304-86.016h11.264c12.8 0 23.04-10.24 23.04-23.04s-10.24-23.04-23.04-23.04h-15.872c-1.024-3.072-2.048-6.144-3.584-8.704h24.576c12.8 0 23.04-10.24 23.04-23.04s-10.24-23.04-23.04-23.04H135.168c-12.288 0-22.528-10.24-22.528-22.528v-123.904-4.096h239.104l-13.312 33.792c-4.096 10.24-13.824 16.896-24.576 16.896H211.968c-12.8 0-23.04 10.24-23.04 23.04s10.24 23.04 23.04 23.04h101.888c29.696 0 56.32-17.92 67.584-45.568l19.968-51.2h215.04l-13.312 33.792c-4.096 10.24-13.824 16.896-24.576 16.896H476.16c-12.8 0-23.04 10.24-23.04 23.04s10.24 23.04 23.04 23.04h101.888c29.696 0 56.32-17.92 67.584-45.568l19.968-51.2h215.04l-13.312 33.792c-4.096 10.24-13.824 16.896-24.576 16.896zM457.728 152.064h94.208v108.544H457.728V152.064zM367.104 322.56c0-8.704 7.168-15.872 15.872-15.872h243.712c8.704 0 15.872 7.168 15.872 15.872s-7.168 15.872-15.872 15.872H382.976c-8.704 0-15.872-7.168-15.872-15.872z m506.88 454.656c3.072 2.56 6.144 5.632 8.704 8.704 7.168 9.216 11.776 20.48 11.776 32.768 0 4.608-0.512 8.704-1.536 13.312-5.632 23.04-26.624 39.936-51.2 39.936s-45.568-16.896-51.2-39.936c-1.024-4.096-1.536-8.704-1.536-13.312 0-12.288 4.608-24.064 11.776-32.768 2.56-3.072 5.632-6.144 8.704-8.704h64.512z m-122.88 0c-1.536 3.072-2.56 5.632-3.584 8.704H344.576c-1.024-3.072-2.048-6.144-3.584-8.704h410.112z m-467.456 0c3.072 2.56 6.144 5.632 8.704 8.704 7.168 9.216 11.776 20.48 11.776 32.768 0 4.608-0.512 8.704-1.536 13.312-5.632 23.04-26.624 39.936-51.2 39.936s-45.568-16.896-51.2-39.936c-1.024-4.096-1.536-8.704-1.536-13.312 0-12.288 4.608-24.064 11.776-32.768 2.56-3.072 5.632-6.144 8.704-8.704h64.512z" p-id="17499" data-spm-anchor-id="a313x.search_index.0.i2.42093a81vHx2P5" class=""></path><path d="M504.832 206.336m-23.04 0a23.04 23.04 0 1 0 46.08 0 23.04 23.04 0 1 0-46.08 0Z" p-id="17500"></path></svg>