<svg xmlns="http://www.w3.org/2000/svg" version="1.1" viewBox="0 0 800 600" width="800" height="600"><g stroke-width="2" fill="none" stroke-linecap="butt"><path stroke="#97c2f1" d="M578.5839 122.0518A4.32 4.32 0 0 0 572.6193 120.7295L512.7047 158.8993A4.32 4.32 0 0 0 511.3824 164.8638L511.4361 164.9482A4.32 4.32 0 0 0 517.4007 166.2705L577.3153 128.1007A4.32 4.32 0 0 0 578.6376 122.1362L578.5839 122.0518M516.32 131.15A9.4 9.4 0 0 0 506.92 121.75 9.4 9.4 0 0 0 497.52 131.15 9.4 9.4 0 0 0 506.92 140.55 9.4 9.4 0 0 0 516.32 131.15" data-c-stroke="97c2f1"/><path stroke="#9098bf" d="M 426.49 172.53 Q 425.85 172.69 424.50 172.47 Q 415.56 171.01 409.61 170.63 Q 367.48 167.94 332.29 191.46 Q 309.77 206.52 294.82 230.33 Q 294.56 230.75 295.05 230.75 L 328.73 230.75 Q 329.27 230.75 329.66 230.37 Q 331.48 228.58 333.36 226.55 Q 338.42 221.10 344.83 216.56 Q 367.37 200.57 395.41 198.29 Q 401.35 197.80 408.03 198.41 Q 415.07 199.05 421.40 200.21 Q 431.60 202.07 442.50 207.03 Q 453.09 211.86 463.42 220.04 Q 468.52 224.07 474.24 230.30 A 1.75 1.74 68.8 0 0 475.53 230.87 L 508.45 230.82 Q 509.02 230.82 508.84 230.27 Q 508.37 228.85 507.42 227.79" data-c-stroke="9098bf"/><path stroke="#97c2f1" d="M 507.42 227.79 Q 539.48 206.37 571.21 185.11 C 574.29 183.05 577.35 180.18 578.41 176.76 C 581.55 166.70 574.13 156.48 563.10 157.89 Q 560.25 158.26 555.49 161.45 Q 522.55 183.51 489.44 205.85" data-c-stroke="97c2f1"/><path stroke="#9098bf" d="M 489.44 205.85 Q 481.38 198.46 471.60 191.68 Q 461.84 184.93 455.51 182.36 Q 451.67 180.81 449.76 179.69" data-c-stroke="9098bf"/><path stroke="#97c2f1" d="M 449.76 179.69 Q 466.56 168.37 483.20 157.26 C 487.45 154.42 490.41 151.71 489.85 146.63 Q 489.25 141.02 483.88 138.76 Q 479.51 136.92 476.32 139.05 Q 451.87 155.34 426.49 172.53" data-c-stroke="97c2f1"/><path stroke="#285bb1" d="M449.76 179.69Q439.03 175.33 426.49 172.53M507.42 227.79Q504.2 223.5 501.05 219.13 498.75 215.95 495.35 212.41 492.43 209.37 489.44 205.85" data-c-stroke="285bb1"/><path stroke="#97c2f1" d="M502.67 172.81A4.95 4.95 0 0 0 497.72 167.86 4.95 4.95 0 0 0 492.77 172.81 4.95 4.95 0 0 0 497.72 177.76 4.95 4.95 0 0 0 502.67 172.81M561.08 233.53A11.75 11.75 0 0 0 549.33 221.78 11.75 11.75 0 0 0 537.58 233.53 11.75 11.75 0 0 0 549.33 245.28 11.75 11.75 0 0 0 561.08 233.53" data-c-stroke="97c2f1"/><path stroke="#939a8c" d="M499.47 263.16C498.5 264.57 497.19 265.61 496.22 267.02Q495.13 268.61 493.87 270.1 490.45 274.18 487.16 278.29 486.66 278.91 487.45 278.91L504.69 278.84Q505.3 278.84 504.92 279.32L489.53 298.72A.23.23 0 0 0 489.71 299.1L499.48 299.09A.39.38 89.3 0 1 499.87 299.48L499.88 344.13Q499.88 344.64 500.39 344.64L520.01 344.64Q520.41 344.64 520.41 344.24L520.4 294.39Q520.4 293.88 519.89 293.87L514.17 293.82Q513.5 293.82 513.89 293.28L529.3 271.91Q529.55 271.57 529.13 271.57L512.97 271.59Q512.48 271.59 512.76 271.2L526.84 251.63Q527.03 251.36 526.71 251.36L503.75 251.44Q503.02 251.44 503.55 251.95L506.16 254.41Q506.46 254.7 506.1 254.92 505.04 255.55 504.3 256.51 501.93 259.61 499.47 263.16M618.87 267.86Q618.96 268.26 619.19 268.6 619.66 269.32 619.66 268.45L619.62 254.89Q619.62 254.35 619.09 254.35 583.2 254.38 545.23 254.37 543.36 254.36 542.1 253.66 540.49 252.75 539.12 251.71 538.55 251.27 538.56 251.99L538.56 264.99Q538.56 265.44 539.02 265.44 575.65 265.4 614.5 265.47 616 265.47 618.28 267 618.74 267.32 618.87 267.86M382.98 263.27 390.02 252.55Q390.27 252.17 389.81 252.17L363.66 252.15Q362.94 252.15 363.47 252.63L365.99 254.93Q366.39 255.3 366.09 255.74L361.28 262.9Q360.97 263.36 360.42 263.36L339.19 263.42Q338.68 263.42 338.25 263.15L334.48 260.86Q333.82 260.45 333.82 261.23L333.82 273.75Q333.82 274.19 334.25 274.19L352.98 274.18Q353.76 274.18 353.33 274.83L341.44 292.96Q341.21 293.32 341.21 293.74L341.17 304.04Q341.17 304.41 341.54 304.41L390.03 304.42Q390.63 304.42 390.63 305.02L390.62 317.56Q390.62 318.22 389.96 318.22 363.26 318.19 335.22 318.2C332.95 318.2 330.85 316.78 329.11 315.5Q328.55 315.1 328.55 315.78L328.56 328.86Q328.56 329.4 329.11 329.4L390.12 329.37Q390.63 329.37 390.63 329.87L390.61 346.04Q390.61 346.46 391.04 346.46L410.74 346.45Q411.18 346.45 411.17 346.01L411.14 329.74Q411.14 329.39 411.49 329.39 438.85 329.4 465.8 329.39 468.44 329.39 470.32 330.85A1.71 1.65-80.7 0 1 470.92 331.72Q471.01 332.01 471.18 332.26 471.66 332.96 471.66 332.11L471.63 318.77Q471.63 318.16 471.02 318.16L411.79 318.15Q411.17 318.15 411.17 317.54L411.14 304.99Q411.14 304.42 411.71 304.42 435.19 304.39 456.75 304.45 460.62 304.46 461.29 307.46 461.36 307.77 461.67 307.74 462.01 307.71 462 307.37 461.65 300.81 461.96 293.87 461.98 293.36 461.47 293.36L411.51 293.36Q411.16 293.36 411.16 293.01L411.17 280Q411.17 279.58 410.75 279.58L388.02 279.58Q387.26 279.58 387.82 280.1L390.19 282.29Q390.61 282.67 390.61 283.23L390.63 292.99Q390.63 293.36 390.26 293.36L362.86 293.36Q362.49 293.36 362.7 293.06L375.22 274.67A1.14 1.13-72.7 0 1 376.16 274.17Q415.72 274.21 459.9 274.15C462.45 274.15 465.78 274.42 466.83 277.15Q467.42 278.69 467.42 277.04L467.39 263.88Q467.39 263.38 466.88 263.38L383.06 263.41Q382.89 263.41 382.98 263.27M188.81 275.28 188.83 345.74Q188.83 346.1 189.18 346.1L208.7 346.09A.41.41 0 0 0 209.11 345.68L209.13 274.99Q209.13 274.65 209.48 274.64 216.19 274.57 223.22 274.66 225.37 274.69 227.1 275.94A1.53 1.51-77.7 0 1 227.72 276.92Q227.81 277.4 228.07 277.83 228.48 278.53 228.48 277.72L228.42 263.89Q228.42 263.36 227.89 263.36L209.74 263.38Q209.11 263.38 209.11 262.75L209.12 253.08Q209.12 252.55 208.58 252.55L186.22 252.56Q185.54 252.56 186.02 253.03L188.34 255.3Q188.82 255.76 188.82 256.42L188.82 262.78Q188.82 263.37 188.22 263.37L173.67 263.37Q173.22 263.37 172.83 263.15L168.75 260.83Q168.06 260.43 168.09 261.23 168.34 267.79 168.04 274.13 168.02 274.63 168.51 274.63L188.15 274.62Q188.81 274.62 188.81 275.28M263.83 261.36 238.39 261.36Q237.93 261.36 237.54 261.13L233.55 258.82Q232.88 258.43 232.89 259.2L232.91 271.9Q232.91 272.43 233.44 272.43 272.94 272.36 308.61 272.45 310.52 272.46 312.33 272.92 312.86 273.05 313.17 273.49L314.39 275.16Q314.98 275.98 314.94 274.97 314.68 268.53 314.93 261.84 314.94 261.35 314.46 261.35L284.82 261.37Q284.43 261.37 284.43 260.98L284.46 253Q284.46 252.55 284 252.55L261.33 252.54Q260.73 252.54 261.17 252.96L263.76 255.43Q264.12 255.77 264.13 256.28L264.19 261Q264.19 261.36 263.83 261.36" data-c-stroke="939a8c"/><path stroke="#9098bf" d="M 249.85 332.64 Q 248.58 333.21 248.24 334.61" data-c-stroke="9098bf"/><path stroke="#939a8c" d="M 248.24 334.61 Q 248.01 334.80 247.76 334.95 Q 247.51 335.10 247.23 335.10 Q 242.99 335.19 238.86 335.04 Q 238.28 335.02 237.79 334.72 L 234.04 332.46 Q 233.58 332.18 233.58 332.73 L 233.57 345.58 Q 233.57 346.10 234.08 346.10 L 261.61 346.09 A 1.25 1.21 -67.9 0 0 262.51 345.69 L 273.58 333.60 Q 273.97 333.17 274.37 333.58 Q 277.62 336.88 280.81 340.15 Q 281.91 341.29 282.72 342.59 Q 283.54 343.92 284.91 344.53 Q 285.32 344.71 285.55 345.10 C 285.95 345.77 286.69 346.07 287.44 346.07 Q 300.37 346.10 315.86 346.09 Q 316.42 346.09 316.42 345.52 L 316.38 332.78 Q 316.38 332.17 315.88 332.53 C 314.08 333.81 311.75 335.15 309.53 335.24 Q 305.63 335.38 302.69 335.20 Q 300.71 335.08 298.95 333.16 Q 293.03 326.70 287.02 320.79 Q 286.63 320.40 287.01 319.99 L 304.28 301.81 Q 304.66 301.41 305.22 301.41 L 315.98 301.43 Q 316.54 301.43 316.26 300.94 L 304.47 279.84 Q 304.11 279.20 304.77 278.89 Q 305.93 278.34 307.32 277.64 Q 307.35 277.63 307.36 277.59 Q 307.41 277.45 307.45 277.32 A 0.18 0.18 0.0 0 0 307.28 277.08 L 282.84 277.15 Q 282.30 277.15 282.56 277.63 L 289.40 290.08 Q 289.63 290.49 289.31 290.83 L 274.45 306.45 Q 274.01 306.92 273.57 306.45 L 258.71 290.82 Q 258.39 290.48 258.62 290.08 L 265.70 277.62 Q 265.98 277.13 265.41 277.12 L 241.31 277.04 Q 240.32 277.03 241.12 277.62 Q 242.34 278.50 243.88 278.83 Q 244.49 278.97 244.19 279.52 L 232.23 300.99 A 0.29 0.29 0.0 0 0 232.49 301.42 L 242.96 301.40 Q 243.49 301.40 243.86 301.78 L 261.26 319.91 Q 261.57 320.24 261.27 320.57 L 249.85 332.64" data-c-stroke="939a8c"/><path stroke="#24324c" d="M 248.24 334.61 Q 249.95 333.43 249.85 332.64" data-c-stroke="24324c"/><path stroke="#939a8c" d="M172.03 283.6A.31.31 0 0 1 172.12 283.84L169.12 345.76A.31.31 0 0 0 169.43 346.09L183.58 346.09A.31.31 0 0 0 183.89 345.8L187.39 280.71A.31.31 0 0 0 187.08 280.38L169.47 280.32A.31.31 0 0 0 169.25 280.85L172.03 283.6M228.12 345.81Q226.58 313.87 225.19 284.96C225.11 283.3 226.6 282.08 227.79 281.14Q228.75 280.38 227.52 280.37L210.51 280.37A.58.58 0 0 0 209.93 280.99L213.57 345.63Q213.6 346.09 214.06 346.09L227.85 346.1A.28.27 89 0 0 228.12 345.81M603.57 296.12Q612.94 296.21 621.47 296.14 624.18 296.12 626.93 297.23A1.23 1.22.7 0 1 627.61 297.92Q627.89 298.62 628.23 299.3 628.68 300.2 628.67 299.2L628.61 285.66Q628.61 285.15 628.1 285.15 582.36 285.21 535.44 285.14 533.93 285.13 532.65 284.43 531.01 283.54 529.59 282.62A.26.26 0 0 0 529.19 282.84L529.22 295.61Q529.22 296.15 529.77 296.15L581.78 296.16Q582.38 296.16 582.38 296.76L582.38 333.23Q582.38 333.83 581.77 333.83L547.25 333.83Q546.82 333.83 546.81 334.25L546.8 346.97A.34.34 0 0 0 547.33 347.25C548.99 346.12 551 344.62 553.12 344.63Q577.78 344.64 602.36 344.65 602.9 344.65 602.9 344.11L602.95 296.73Q602.95 296.11 603.57 296.12" data-c-stroke="939a8c"/><path stroke="#97c2f1" d="M264.46 366.48A11.75 11.75 0 0 0 252.71 354.73 11.75 11.75 0 0 0 240.96 366.48 11.75 11.75 0 0 0 252.71 378.23 11.75 11.75 0 0 0 264.46 366.48M294.55 372.18Q261.76 394.24 229.27 416.32 221.94 421.3 223 430.11C223.97 438.13 231.47 443.19 239.32 442.01Q241.95 441.62 246.37 438.65 279.25 416.58 312.73 394.09" data-c-stroke="97c2f1"/><path stroke="#9691b9" d="M 312.73 394.09 Q 321.74 402.48 332.08 409.44 Q 332.99 410.05 334.01 410.54" data-c-stroke="9691b9"/><path stroke="#9098bf" d="M 334.01 410.54 Q 334.24 411.32 335.41 411.46" data-c-stroke="9098bf"/><path stroke="#9691b9" d="M 335.41 411.46 Q 335.93 412.07 336.76 412.34" data-c-stroke="9691b9"/><path stroke="#9098bf" d="M 336.76 412.34 L 341.79 415.28" data-c-stroke="9098bf"/><path stroke="#9691b9" d="M 341.79 415.28 L 352.37 420.21" data-c-stroke="9691b9"/><path stroke="#97c2f1" d="M 352.37 420.21 Q 334.01 432.61 315.97 444.70 Q 313.05 446.66 312.23 451.18 C 311.38 455.87 314.57 460.03 318.92 461.51 Q 322.86 462.86 327.05 460.05 Q 351.13 443.97 375.71 427.40" data-c-stroke="97c2f1"/><path stroke="#9691b9" d="M 375.71 427.40 Q 375.92 427.47 376.72 427.62 Q 417.87 435.09 455.28 417.01 Q 486.55 401.89 507.18 369.65 Q 507.43 369.25 506.96 369.25 L 473.45 369.25 A 1.09 1.07 20.9 0 0 472.65 369.60 Q 446.01 398.43 407.03 401.63 C 398.79 402.30 389.53 401.44 381.51 399.93 Q 369.65 397.70 358.88 392.67 Q 341.90 384.73 328.15 370.06 C 327.31 369.16 326.07 369.12 324.91 369.11 Q 308.93 369.09 293.29 369.23 A 0.35 0.35 0.0 0 0 293.00 369.77 L 294.55 372.18" data-c-stroke="9691b9"/><path stroke="#2e54ab" d="M 375.71 427.40 Q 363.28 424.93 352.37 420.21" data-c-stroke="2e54ab"/><path stroke="#272979" d="M341.79 415.28Q346.49 412.97 346.05 410.49C344.67 402.87 335.39 406.39 337.52 411.31Q337.73 411.79 337.36 412.15 337.11 412.41 336.76 412.34M335.41 411.46Q335.53 411.14 335.42 410.83 335.22 410.3 334.66 410.35 334.35 410.38 334.01 410.54" data-c-stroke="272979"/><path stroke="#2e54ab" d="M 312.73 394.09 Q 309.44 390.65 306.20 387.22 Q 303.21 384.05 300.26 379.88 Q 297.41 375.86 294.55 372.18" data-c-stroke="2e54ab"/><path stroke="#97c2f1" d="M309.29 427.21A4.95 4.95 0 0 0 304.34 422.26 4.95 4.95 0 0 0 299.39 427.21 4.95 4.95 0 0 0 304.34 432.16 4.95 4.95 0 0 0 309.29 427.21M290.6139 435.0518A4.32 4.32 0 0 0 284.6493 433.7295L224.7347 471.8993A4.32 4.32 0 0 0 223.4124 477.8638L223.4661 477.9482A4.32 4.32 0 0 0 229.4307 479.2705L289.3453 441.1007A4.32 4.32 0 0 0 290.6676 435.1362L290.6139 435.0518M304.52 468.85A9.4 9.4 0 0 0 295.12 459.45 9.4 9.4 0 0 0 285.72 468.85 9.4 9.4 0 0 0 295.12 478.25 9.4 9.4 0 0 0 304.52 468.85" data-c-stroke="97c2f1"/><path stroke="#272979" d="M360.57 394.83A.6.6 0 0 0 360.14 395.73L363.57 401.51Q363.93 402.12 364.63 402.02L365.14 401.94A.49.49 0 0 0 365.46 401.16Q363.51 398.55 362.89 395.8 362.71 395.02 361.92 394.87 361.24 394.73 360.57 394.83M358.17 402.55 355.18 400.03Q354.66 399.6 354.05 399.32 352.85 398.76 352.41 399.54A.33.33 0 0 0 352.49 399.96Q355.12 402.11 357.94 404.3C359.28 405.34 360.07 407.58 358.19 408.57A.53.52 75.5 0 0 357.92 409.03Q357.93 409.6 358.53 409.69 358.99 409.76 359.4 409.54 361.09 408.63 360.79 406.22 360.15 401.14 359.41 396.77 359.3 396.13 358.65 396.12L358.24 396.12Q357.59 396.12 357.7 396.77L358.63 402.28Q358.77 403.06 358.17 402.55" data-c-stroke="272979"/><path stroke="#272979" d="M 350.82 409.77 C 358.62 408.84 351.93 396.37 346.89 403.04 Q 346.39 403.71 345.58 403.50 A 0.59 0.59 0.0 0 0 344.92 404.36 L 350.19 413.49 Q 350.54 414.10 351.23 414.02 L 351.80 413.96 Q 352.46 413.88 352.13 413.31 L 350.49 410.44 Q 350.15 409.85 350.82 409.77" data-c-stroke="272979"/><path stroke="#272979" d="M351.526 408.192A2.97 2.23 62.4 0 0 352.1262 404.5268 2.97 2.23 62.4 0 0 348.774 402.928 2.97 2.23 62.4 0 0 348.1738 406.5932 2.97 2.23 62.4 0 0 351.526 408.192M342.9578 413.0014A3.01 2.49 63.4 0 0 343.8364 409.1951 3.01 2.49 63.4 0 0 340.2622 407.6186 3.01 2.49 63.4 0 0 339.3836 411.4249 3.01 2.49 63.4 0 0 342.9578 413.0014" data-c-stroke="272979"/></g><path fill="#ffffff" d="M 0.00 0.00 L 800.00 0.00 L 800.00 600.00 L 0.00 600.00 L 0.00 0.00 Z M 578.5839 122.0518 A 4.32 4.32 0.0 0 0 572.6193 120.7295 L 512.7047 158.8993 A 4.32 4.32 0.0 0 0 511.3824 164.8638 L 511.4361 164.9482 A 4.32 4.32 0.0 0 0 517.4007 166.2705 L 577.3153 128.1007 A 4.32 4.32 0.0 0 0 578.6376 122.1362 L 578.5839 122.0518 Z M 516.32 131.15 A 9.40 9.40 0.0 0 0 506.92 121.75 A 9.40 9.40 0.0 0 0 497.52 131.15 A 9.40 9.40 0.0 0 0 506.92 140.55 A 9.40 9.40 0.0 0 0 516.32 131.15 Z M 426.49 172.53 Q 425.85 172.69 424.50 172.47 Q 415.56 171.01 409.61 170.63 Q 367.48 167.94 332.29 191.46 Q 309.77 206.52 294.82 230.33 Q 294.56 230.75 295.05 230.75 L 328.73 230.75 Q 329.27 230.75 329.66 230.37 Q 331.48 228.58 333.36 226.55 Q 338.42 221.10 344.83 216.56 Q 367.37 200.57 395.41 198.29 Q 401.35 197.80 408.03 198.41 Q 415.07 199.05 421.40 200.21 Q 431.60 202.07 442.50 207.03 Q 453.09 211.86 463.42 220.04 Q 468.52 224.07 474.24 230.30 A 1.75 1.74 68.8 0 0 475.53 230.87 L 508.45 230.82 Q 509.02 230.82 508.84 230.27 Q 508.37 228.85 507.42 227.79 Q 539.48 206.37 571.21 185.11 C 574.29 183.05 577.35 180.18 578.41 176.76 C 581.55 166.70 574.13 156.48 563.10 157.89 Q 560.25 158.26 555.49 161.45 Q 522.55 183.51 489.44 205.85 Q 481.38 198.46 471.60 191.68 Q 461.84 184.93 455.51 182.36 Q 451.67 180.81 449.76 179.69 Q 466.56 168.37 483.20 157.26 C 487.45 154.42 490.41 151.71 489.85 146.63 Q 489.25 141.02 483.88 138.76 Q 479.51 136.92 476.32 139.05 Q 451.87 155.34 426.49 172.53 Z M 502.67 172.81 A 4.95 4.95 0.0 0 0 497.72 167.86 A 4.95 4.95 0.0 0 0 492.77 172.81 A 4.95 4.95 0.0 0 0 497.72 177.76 A 4.95 4.95 0.0 0 0 502.67 172.81 Z M 561.08 233.53 A 11.75 11.75 0.0 0 0 549.33 221.78 A 11.75 11.75 0.0 0 0 537.58 233.53 A 11.75 11.75 0.0 0 0 549.33 245.28 A 11.75 11.75 0.0 0 0 561.08 233.53 Z M 499.47 263.16 C 498.50 264.57 497.19 265.61 496.22 267.02 Q 495.13 268.61 493.87 270.10 Q 490.45 274.18 487.16 278.29 Q 486.66 278.91 487.45 278.91 L 504.69 278.84 Q 505.30 278.84 504.92 279.32 L 489.53 298.72 A 0.23 0.23 0.0 0 0 489.71 299.10 L 499.48 299.09 A 0.39 0.38 89.3 0 1 499.87 299.48 L 499.88 344.13 Q 499.88 344.64 500.39 344.64 L 520.01 344.64 Q 520.41 344.64 520.41 344.24 L 520.40 294.39 Q 520.40 293.88 519.89 293.87 L 514.17 293.82 Q 513.50 293.82 513.89 293.28 L 529.30 271.91 Q 529.55 271.57 529.13 271.57 L 512.97 271.59 Q 512.48 271.59 512.76 271.20 L 526.84 251.63 Q 527.03 251.36 526.71 251.36 L 503.75 251.44 Q 503.02 251.44 503.55 251.95 L 506.16 254.41 Q 506.46 254.70 506.10 254.92 Q 505.04 255.55 504.30 256.51 Q 501.93 259.61 499.47 263.16 Z M 618.87 267.86 Q 618.96 268.26 619.19 268.60 Q 619.66 269.32 619.66 268.45 L 619.62 254.89 Q 619.62 254.35 619.09 254.35 Q 583.20 254.38 545.23 254.37 Q 543.36 254.36 542.10 253.66 Q 540.49 252.75 539.12 251.71 Q 538.55 251.27 538.56 251.99 L 538.56 264.99 Q 538.56 265.44 539.02 265.44 Q 575.65 265.40 614.50 265.47 Q 616.00 265.47 618.28 267.00 Q 618.74 267.32 618.87 267.86 Z M 382.98 263.27 L 390.02 252.55 Q 390.27 252.17 389.81 252.17 L 363.66 252.15 Q 362.94 252.15 363.47 252.63 L 365.99 254.93 Q 366.39 255.30 366.09 255.74 L 361.28 262.90 Q 360.97 263.36 360.42 263.36 L 339.19 263.42 Q 338.68 263.42 338.25 263.15 L 334.48 260.86 Q 333.82 260.45 333.82 261.23 L 333.82 273.75 Q 333.82 274.19 334.25 274.19 L 352.98 274.18 Q 353.76 274.18 353.33 274.83 L 341.44 292.96 Q 341.21 293.32 341.21 293.74 L 341.17 304.04 Q 341.17 304.41 341.54 304.41 L 390.03 304.42 Q 390.63 304.42 390.63 305.02 L 390.62 317.56 Q 390.62 318.22 389.96 318.22 Q 363.26 318.19 335.22 318.20 C 332.95 318.20 330.85 316.78 329.11 315.50 Q 328.55 315.10 328.55 315.78 L 328.56 328.86 Q 328.56 329.40 329.11 329.40 L 390.12 329.37 Q 390.63 329.37 390.63 329.87 L 390.61 346.04 Q 390.61 346.46 391.04 346.46 L 410.74 346.45 Q 411.18 346.45 411.17 346.01 L 411.14 329.74 Q 411.14 329.39 411.49 329.39 Q 438.85 329.40 465.80 329.39 Q 468.44 329.39 470.32 330.85 A 1.71 1.65 -80.7 0 1 470.92 331.72 Q 471.01 332.01 471.18 332.26 Q 471.66 332.96 471.66 332.11 L 471.63 318.77 Q 471.63 318.16 471.02 318.16 L 411.79 318.15 Q 411.17 318.15 411.17 317.54 L 411.14 304.99 Q 411.14 304.42 411.71 304.42 Q 435.19 304.39 456.75 304.45 Q 460.62 304.46 461.29 307.46 Q 461.36 307.77 461.67 307.74 Q 462.01 307.71 462.00 307.37 Q 461.65 300.81 461.96 293.87 Q 461.98 293.36 461.47 293.36 L 411.51 293.36 Q 411.16 293.36 411.16 293.01 L 411.17 280.00 Q 411.17 279.58 410.75 279.58 L 388.02 279.58 Q 387.26 279.58 387.82 280.10 L 390.19 282.29 Q 390.61 282.67 390.61 283.23 L 390.63 292.99 Q 390.63 293.36 390.26 293.36 L 362.86 293.36 Q 362.49 293.36 362.70 293.06 L 375.22 274.67 A 1.14 1.13 -72.7 0 1 376.16 274.17 Q 415.72 274.21 459.90 274.15 C 462.45 274.15 465.78 274.42 466.83 277.15 Q 467.42 278.69 467.42 277.04 L 467.39 263.88 Q 467.39 263.38 466.88 263.38 L 383.06 263.41 Q 382.89 263.41 382.98 263.27 Z M 188.81 275.28 L 188.83 345.74 Q 188.83 346.10 189.18 346.10 L 208.70 346.09 A 0.41 0.41 0.0 0 0 209.11 345.68 L 209.13 274.99 Q 209.13 274.65 209.48 274.64 Q 216.19 274.57 223.22 274.66 Q 225.37 274.69 227.10 275.94 A 1.53 1.51 -77.7 0 1 227.72 276.92 Q 227.81 277.40 228.07 277.83 Q 228.48 278.53 228.48 277.72 L 228.42 263.89 Q 228.42 263.36 227.89 263.36 L 209.74 263.38 Q 209.11 263.38 209.11 262.75 L 209.12 253.08 Q 209.12 252.55 208.58 252.55 L 186.22 252.56 Q 185.54 252.56 186.02 253.03 L 188.34 255.30 Q 188.82 255.76 188.82 256.42 L 188.82 262.78 Q 188.82 263.37 188.22 263.37 L 173.67 263.37 Q 173.22 263.37 172.83 263.15 L 168.75 260.83 Q 168.06 260.43 168.09 261.23 Q 168.34 267.79 168.04 274.13 Q 168.02 274.63 168.51 274.63 L 188.15 274.62 Q 188.81 274.62 188.81 275.28 Z M 263.83 261.36 L 238.39 261.36 Q 237.93 261.36 237.54 261.13 L 233.55 258.82 Q 232.88 258.43 232.89 259.20 L 232.91 271.90 Q 232.91 272.43 233.44 272.43 Q 272.94 272.36 308.61 272.45 Q 310.52 272.46 312.33 272.92 Q 312.86 273.05 313.17 273.49 L 314.39 275.16 Q 314.98 275.98 314.94 274.97 Q 314.68 268.53 314.93 261.84 Q 314.94 261.35 314.46 261.35 L 284.82 261.37 Q 284.43 261.37 284.43 260.98 L 284.46 253.00 Q 284.46 252.55 284.00 252.55 L 261.33 252.54 Q 260.73 252.54 261.17 252.96 L 263.76 255.43 Q 264.12 255.77 264.13 256.28 L 264.19 261.00 Q 264.19 261.36 263.83 261.36 Z M 249.85 332.64 Q 248.58 333.21 248.24 334.61 Q 248.01 334.80 247.76 334.95 Q 247.51 335.10 247.23 335.10 Q 242.99 335.19 238.86 335.04 Q 238.28 335.02 237.79 334.72 L 234.04 332.46 Q 233.58 332.18 233.58 332.73 L 233.57 345.58 Q 233.57 346.10 234.08 346.10 L 261.61 346.09 A 1.25 1.21 -67.9 0 0 262.51 345.69 L 273.58 333.60 Q 273.97 333.17 274.37 333.58 Q 277.62 336.88 280.81 340.15 Q 281.91 341.29 282.72 342.59 Q 283.54 343.92 284.91 344.53 Q 285.32 344.71 285.55 345.10 C 285.95 345.77 286.69 346.07 287.44 346.07 Q 300.37 346.10 315.86 346.09 Q 316.42 346.09 316.42 345.52 L 316.38 332.78 Q 316.38 332.17 315.88 332.53 C 314.08 333.81 311.75 335.15 309.53 335.24 Q 305.63 335.38 302.69 335.20 Q 300.71 335.08 298.95 333.16 Q 293.03 326.70 287.02 320.79 Q 286.63 320.40 287.01 319.99 L 304.28 301.81 Q 304.66 301.41 305.22 301.41 L 315.98 301.43 Q 316.54 301.43 316.26 300.94 L 304.47 279.84 Q 304.11 279.20 304.77 278.89 Q 305.93 278.34 307.32 277.64 Q 307.35 277.63 307.36 277.59 Q 307.41 277.45 307.45 277.32 A 0.18 0.18 0.0 0 0 307.28 277.08 L 282.84 277.15 Q 282.30 277.15 282.56 277.63 L 289.40 290.08 Q 289.63 290.49 289.31 290.83 L 274.45 306.45 Q 274.01 306.92 273.57 306.45 L 258.71 290.82 Q 258.39 290.48 258.62 290.08 L 265.70 277.62 Q 265.98 277.13 265.41 277.12 L 241.31 277.04 Q 240.32 277.03 241.12 277.62 Q 242.34 278.50 243.88 278.83 Q 244.49 278.97 244.19 279.52 L 232.23 300.99 A 0.29 0.29 0.0 0 0 232.49 301.42 L 242.96 301.40 Q 243.49 301.40 243.86 301.78 L 261.26 319.91 Q 261.57 320.24 261.27 320.57 L 249.85 332.64 Z M 172.03 283.60 A 0.31 0.31 0.0 0 1 172.12 283.84 L 169.12 345.76 A 0.31 0.31 0.0 0 0 169.43 346.09 L 183.58 346.09 A 0.31 0.31 0.0 0 0 183.89 345.80 L 187.39 280.71 A 0.31 0.31 0.0 0 0 187.08 280.38 L 169.47 280.32 A 0.31 0.31 0.0 0 0 169.25 280.85 L 172.03 283.60 Z M 228.12 345.81 Q 226.58 313.87 225.19 284.96 C 225.11 283.30 226.60 282.08 227.79 281.14 Q 228.75 280.38 227.52 280.37 L 210.51 280.37 A 0.58 0.58 0.0 0 0 209.93 280.99 L 213.57 345.63 Q 213.60 346.09 214.06 346.09 L 227.85 346.10 A 0.28 0.27 89.0 0 0 228.12 345.81 Z M 603.57 296.12 Q 612.94 296.21 621.47 296.14 Q 624.18 296.12 626.93 297.23 A 1.23 1.22 0.7 0 1 627.61 297.92 Q 627.89 298.62 628.23 299.30 Q 628.68 300.20 628.67 299.20 L 628.61 285.66 Q 628.61 285.15 628.10 285.15 Q 582.36 285.21 535.44 285.14 Q 533.93 285.13 532.65 284.43 Q 531.01 283.54 529.59 282.62 A 0.26 0.26 0.0 0 0 529.19 282.84 L 529.22 295.61 Q 529.22 296.15 529.77 296.15 L 581.78 296.16 Q 582.38 296.16 582.38 296.76 L 582.38 333.23 Q 582.38 333.83 581.77 333.83 L 547.25 333.83 Q 546.82 333.83 546.81 334.25 L 546.80 346.97 A 0.34 0.34 0.0 0 0 547.33 347.25 C 548.99 346.12 551.00 344.62 553.12 344.63 Q 577.78 344.64 602.36 344.65 Q 602.90 344.65 602.90 344.11 L 602.95 296.73 Q 602.95 296.11 603.57 296.12 Z M 264.46 366.48 A 11.75 11.75 0.0 0 0 252.71 354.73 A 11.75 11.75 0.0 0 0 240.96 366.48 A 11.75 11.75 0.0 0 0 252.71 378.23 A 11.75 11.75 0.0 0 0 264.46 366.48 Z M 294.55 372.18 Q 261.76 394.24 229.27 416.32 Q 221.94 421.30 223.00 430.11 C 223.97 438.13 231.47 443.19 239.32 442.01 Q 241.95 441.62 246.37 438.65 Q 279.25 416.58 312.73 394.09 Q 321.74 402.48 332.08 409.44 Q 332.99 410.05 334.01 410.54 Q 334.24 411.32 335.41 411.46 Q 335.93 412.07 336.76 412.34 L 341.79 415.28 L 352.37 420.21 Q 334.01 432.61 315.97 444.70 Q 313.05 446.66 312.23 451.18 C 311.38 455.87 314.57 460.03 318.92 461.51 Q 322.86 462.86 327.05 460.05 Q 351.13 443.97 375.71 427.40 Q 375.92 427.47 376.72 427.62 Q 417.87 435.09 455.28 417.01 Q 486.55 401.89 507.18 369.65 Q 507.43 369.25 506.96 369.25 L 473.45 369.25 A 1.09 1.07 20.9 0 0 472.65 369.60 Q 446.01 398.43 407.03 401.63 C 398.79 402.30 389.53 401.44 381.51 399.93 Q 369.65 397.70 358.88 392.67 Q 341.90 384.73 328.15 370.06 C 327.31 369.16 326.07 369.12 324.91 369.11 Q 308.93 369.09 293.29 369.23 A 0.35 0.35 0.0 0 0 293.00 369.77 L 294.55 372.18 Z M 309.29 427.21 A 4.95 4.95 0.0 0 0 304.34 422.26 A 4.95 4.95 0.0 0 0 299.39 427.21 A 4.95 4.95 0.0 0 0 304.34 432.16 A 4.95 4.95 0.0 0 0 309.29 427.21 Z M 290.6139 435.0518 A 4.32 4.32 0.0 0 0 284.6493 433.7295 L 224.7347 471.8993 A 4.32 4.32 0.0 0 0 223.4124 477.8638 L 223.4661 477.9482 A 4.32 4.32 0.0 0 0 229.4307 479.2705 L 289.3453 441.1007 A 4.32 4.32 0.0 0 0 290.6676 435.1362 L 290.6139 435.0518 Z M 304.52 468.85 A 9.40 9.40 0.0 0 0 295.12 459.45 A 9.40 9.40 0.0 0 0 285.72 468.85 A 9.40 9.40 0.0 0 0 295.12 478.25 A 9.40 9.40 0.0 0 0 304.52 468.85 Z" data-c-fill="ffffff"/><rect fill="#2e85e3" x="-39.84" y="-4.37" transform="rotate(-32.5 518.668 -863.172)" width="79.68" height="8.74" rx="4.32" data-c-fill="2e85e3"/><circle fill="#2e85e3" cx="506.92" cy="131.15" r="9.4" data-c-fill="2e85e3"/><path fill="#2e85e3" d="M449.76 179.69Q439.03 175.33 426.49 172.53 451.87 155.34 476.32 139.05 479.51 136.92 483.88 138.76 489.25 141.02 489.85 146.63C490.41 151.71 487.45 154.42 483.2 157.26Q466.56 168.37 449.76 179.69ZM507.42 227.79Q504.2 223.5 501.05 219.13 498.75 215.95 495.35 212.41 492.43 209.37 489.44 205.85 522.55 183.51 555.49 161.45 560.25 158.26 563.1 157.89C574.13 156.48 581.55 166.7 578.41 176.76 577.35 180.18 574.29 183.05 571.21 185.11Q539.48 206.37 507.42 227.79Z" data-c-fill="2e85e3"/><circle fill="#2e85e3" cx="497.72" cy="172.81" r="4.95" data-c-fill="2e85e3"/><path fill="#21307f" d="M 426.49 172.53 Q 439.03 175.33 449.76 179.69 Q 451.67 180.81 455.51 182.36 Q 461.84 184.93 471.60 191.68 Q 481.38 198.46 489.44 205.85 Q 492.43 209.37 495.35 212.41 Q 498.75 215.95 501.05 219.13 Q 504.20 223.50 507.42 227.79 Q 508.37 228.85 508.84 230.27 Q 509.02 230.82 508.45 230.82 L 475.53 230.87 A 1.75 1.74 68.8 0 1 474.24 230.30 Q 468.52 224.07 463.42 220.04 Q 453.09 211.86 442.50 207.03 Q 431.60 202.07 421.40 200.21 Q 415.07 199.05 408.03 198.41 Q 401.35 197.80 395.41 198.29 Q 367.37 200.57 344.83 216.56 Q 338.42 221.10 333.36 226.55 Q 331.48 228.58 329.66 230.37 Q 329.27 230.75 328.73 230.75 L 295.05 230.75 Q 294.56 230.75 294.82 230.33 Q 309.77 206.52 332.29 191.46 Q 367.48 167.94 409.61 170.63 Q 415.56 171.01 424.50 172.47 Q 425.85 172.69 426.49 172.53 Z" data-c-fill="21307f"/><circle fill="#2e85e3" cx="549.33" cy="233.53" r="11.75" data-c-fill="2e85e3"/><path fill="#131412" d="M499.47 263.16Q501.93 259.61 504.3 256.51 505.04 255.55 506.1 254.92 506.46 254.7 506.16 254.41L503.55 251.95Q503.02 251.44 503.75 251.44L526.71 251.36Q527.03 251.36 526.84 251.63L512.76 271.2Q512.48 271.59 512.97 271.59L529.13 271.57Q529.55 271.57 529.3 271.91L513.89 293.28Q513.5 293.82 514.17 293.82L519.89 293.87Q520.4 293.88 520.4 294.39L520.41 344.24Q520.41 344.64 520.01 344.64L500.39 344.64Q499.88 344.64 499.88 344.13L499.87 299.48A.39.38 89.3 0 0 499.48 299.09L489.71 299.1A.23.23 0 0 1 489.53 298.72L504.92 279.32Q505.3 278.84 504.69 278.84L487.45 278.91Q486.66 278.91 487.16 278.29 490.45 274.18 493.87 270.1 495.13 268.61 496.22 267.02C497.19 265.61 498.5 264.57 499.47 263.16ZM618.28 267Q616 265.47 614.5 265.47 575.65 265.4 539.02 265.44 538.56 265.44 538.56 264.99L538.56 251.99Q538.55 251.27 539.12 251.71 540.49 252.75 542.1 253.66 543.36 254.36 545.23 254.37 583.2 254.38 619.09 254.35 619.62 254.35 619.62 254.89L619.66 268.45Q619.66 269.32 619.19 268.6 618.96 268.26 618.87 267.86 618.74 267.32 618.28 267ZM383.06 263.41 466.88 263.38Q467.39 263.38 467.39 263.88L467.42 277.04Q467.42 278.69 466.83 277.15C465.78 274.42 462.45 274.15 459.9 274.15Q415.72 274.21 376.16 274.17A1.14 1.13-72.7 0 0 375.22 274.67L362.7 293.06Q362.49 293.36 362.86 293.36L390.26 293.36Q390.63 293.36 390.63 292.99L390.61 283.23Q390.61 282.67 390.19 282.29L387.82 280.1Q387.26 279.58 388.02 279.58L410.75 279.58Q411.17 279.58 411.17 280L411.16 293.01Q411.16 293.36 411.51 293.36L461.47 293.36Q461.98 293.36 461.96 293.87 461.65 300.81 462 307.37 462.01 307.71 461.67 307.74 461.36 307.77 461.29 307.46 460.62 304.46 456.75 304.45 435.19 304.39 411.71 304.42 411.14 304.42 411.14 304.99L411.17 317.54Q411.17 318.15 411.79 318.15L471.02 318.16Q471.63 318.16 471.63 318.77L471.66 332.11Q471.66 332.96 471.18 332.26 471.01 332.01 470.92 331.72A1.71 1.65-80.7 0 0 470.32 330.85Q468.44 329.39 465.8 329.39 438.85 329.4 411.49 329.39 411.14 329.39 411.14 329.74L411.17 346.01Q411.18 346.45 410.74 346.45L391.04 346.46Q390.61 346.46 390.61 346.04L390.63 329.87Q390.63 329.37 390.12 329.37L329.11 329.4Q328.56 329.4 328.56 328.86L328.55 315.78Q328.55 315.1 329.11 315.5C330.85 316.78 332.95 318.2 335.22 318.2Q363.26 318.19 389.96 318.22 390.62 318.22 390.62 317.56L390.63 305.02Q390.63 304.42 390.03 304.42L341.54 304.41Q341.17 304.41 341.17 304.04L341.21 293.74Q341.21 293.32 341.44 292.96L353.33 274.83Q353.76 274.18 352.98 274.18L334.25 274.19Q333.82 274.19 333.82 273.75L333.82 261.23Q333.82 260.45 334.48 260.86L338.25 263.15Q338.68 263.42 339.19 263.42L360.42 263.36Q360.97 263.36 361.28 262.9L366.09 255.74Q366.39 255.3 365.99 254.93L363.47 252.63Q362.94 252.15 363.66 252.15L389.81 252.17Q390.27 252.17 390.02 252.55L382.98 263.27Q382.89 263.41 383.06 263.41ZM188.15 274.62 168.51 274.63Q168.02 274.63 168.04 274.13 168.34 267.79 168.09 261.23 168.06 260.43 168.75 260.83L172.83 263.15Q173.22 263.37 173.67 263.37L188.22 263.37Q188.82 263.37 188.82 262.78L188.82 256.42Q188.82 255.76 188.34 255.3L186.02 253.03Q185.54 252.56 186.22 252.56L208.58 252.55Q209.12 252.55 209.12 253.08L209.11 262.75Q209.11 263.38 209.74 263.38L227.89 263.36Q228.42 263.36 228.42 263.89L228.48 277.72Q228.48 278.53 228.07 277.83 227.81 277.4 227.72 276.92A1.53 1.51-77.7 0 0 227.1 275.94Q225.37 274.69 223.22 274.66 216.19 274.57 209.48 274.64 209.13 274.65 209.13 274.99L209.11 345.68A.41.41 0 0 1 208.7 346.09L189.18 346.1Q188.83 346.1 188.83 345.74L188.81 275.28Q188.81 274.62 188.15 274.62ZM264.19 261 264.13 256.28Q264.12 255.77 263.76 255.43L261.17 252.96Q260.73 252.54 261.33 252.54L284 252.55Q284.46 252.55 284.46 253L284.43 260.98Q284.43 261.37 284.82 261.37L314.46 261.35Q314.94 261.35 314.93 261.84 314.68 268.53 314.94 274.97 314.98 275.98 314.39 275.16L313.17 273.49Q312.86 273.05 312.33 272.92 310.52 272.46 308.61 272.45 272.94 272.36 233.44 272.43 232.91 272.43 232.91 271.9L232.89 259.2Q232.88 258.43 233.55 258.82L237.54 261.13Q237.93 261.36 238.39 261.36L263.83 261.36Q264.19 261.36 264.19 261ZM248.24 334.61Q249.95 333.43 249.85 332.64L261.27 320.57Q261.57 320.24 261.26 319.91L243.86 301.78Q243.49 301.4 242.96 301.4L232.49 301.42A.29.29 0 0 1 232.23 300.99L244.19 279.52Q244.49 278.97 243.88 278.83 242.34 278.5 241.12 277.62 240.32 277.03 241.31 277.04L265.41 277.12Q265.98 277.13 265.7 277.62L258.62 290.08Q258.39 290.48 258.71 290.82L273.57 306.45Q274.01 306.92 274.45 306.45L289.31 290.83Q289.63 290.49 289.4 290.08L282.56 277.63Q282.3 277.15 282.84 277.15L307.28 277.08A.18.18 0 0 1 307.45 277.32Q307.41 277.45 307.36 277.59 307.35 277.63 307.32 277.64 305.93 278.34 304.77 278.89 304.11 279.2 304.47 279.84L316.26 300.94Q316.54 301.43 315.98 301.43L305.22 301.41Q304.66 301.41 304.28 301.81L287.01 319.99Q286.63 320.4 287.02 320.79 293.03 326.7 298.95 333.16 300.71 335.08 302.69 335.2 305.63 335.38 309.53 335.24C311.75 335.15 314.08 333.81 315.88 332.53Q316.38 332.17 316.38 332.78L316.42 345.52Q316.42 346.09 315.86 346.09 300.37 346.1 287.44 346.07C286.69 346.07 285.95 345.77 285.55 345.1Q285.32 344.71 284.91 344.53 283.54 343.92 282.72 342.59 281.91 341.29 280.81 340.15 277.62 336.88 274.37 333.58 273.97 333.17 273.58 333.6L262.51 345.69A1.25 1.21-67.9 0 1 261.61 346.09L234.08 346.1Q233.57 346.1 233.57 345.58L233.58 332.73Q233.58 332.18 234.04 332.46L237.79 334.72Q238.28 335.02 238.86 335.04 242.99 335.19 247.23 335.1 247.51 335.1 247.76 334.95 248.01 334.8 248.24 334.61Z" data-c-fill="263419"/><path fill="#131412" d="M172.03 283.6 169.25 280.85A.31.31 0 0 1 169.47 280.32L187.08 280.38A.31.31 0 0 1 187.39 280.71L183.89 345.8A.31.31 0 0 1 183.58 346.09L169.43 346.09A.31.31 0 0 1 169.12 345.76L172.12 283.84A.31.31 0 0 0 172.03 283.6ZM228.12 345.81A.28.27 89 0 1 227.85 346.1L214.06 346.09Q213.6 346.09 213.57 345.63L209.93 280.99A.58.58 0 0 1 210.51 280.37L227.52 280.37Q228.75 280.38 227.79 281.14C226.6 282.08 225.11 283.3 225.19 284.96Q226.58 313.87 228.12 345.81ZM602.95 296.73 602.9 344.11Q602.9 344.65 602.36 344.65 577.78 344.64 553.12 344.63C551 344.62 548.99 346.12 547.33 347.25A.34.34 0 0 1 546.8 346.97L546.81 334.25Q546.82 333.83 547.25 333.83L581.77 333.83Q582.38 333.83 582.38 333.23L582.38 296.76Q582.38 296.16 581.78 296.16L529.77 296.15Q529.22 296.15 529.22 295.61L529.19 282.84A.26.26 0 0 1 529.59 282.62Q531.01 283.54 532.65 284.43 533.93 285.13 535.44 285.14 582.36 285.21 628.1 285.15 628.61 285.15 628.61 285.66L628.67 299.2Q628.68 300.2 628.23 299.3 627.89 298.62 627.61 297.92A1.23 1.22.7 0 0 626.93 297.23Q624.18 296.12 621.47 296.14 612.94 296.21 603.57 296.12 602.95 296.11 602.95 296.73Z" data-c-fill="263419"/><path fill="#21307f" d="M 249.85 332.64 Q 249.95 333.43 248.24 334.61 Q 248.58 333.21 249.85 332.64 Z" data-c-fill="21307f"/><circle fill="#2e85e3" cx="252.71" cy="366.48" r="11.75" data-c-fill="2e85e3"/><path fill="#2d2272" d="M 375.71 427.40 Q 363.28 424.93 352.37 420.21 L 341.79 415.28 Q 346.49 412.97 346.05 410.49 C 344.67 402.87 335.39 406.39 337.52 411.31 Q 337.73 411.79 337.36 412.15 Q 337.11 412.41 336.76 412.34 Q 335.93 412.07 335.41 411.46 Q 335.53 411.14 335.42 410.83 Q 335.22 410.30 334.66 410.35 Q 334.35 410.38 334.01 410.54 Q 332.99 410.05 332.08 409.44 Q 321.74 402.48 312.73 394.09 Q 309.44 390.65 306.20 387.22 Q 303.21 384.05 300.26 379.88 Q 297.41 375.86 294.55 372.18 L 293.00 369.77 A 0.35 0.35 0.0 0 1 293.29 369.23 Q 308.93 369.09 324.91 369.11 C 326.07 369.12 327.31 369.16 328.15 370.06 Q 341.90 384.73 358.88 392.67 Q 369.65 397.70 381.51 399.93 C 389.53 401.44 398.79 402.30 407.03 401.63 Q 446.01 398.43 472.65 369.60 A 1.09 1.07 20.9 0 1 473.45 369.25 L 506.96 369.25 Q 507.43 369.25 507.18 369.65 Q 486.55 401.89 455.28 417.01 Q 417.87 435.09 376.72 427.62 Q 375.92 427.47 375.71 427.40 Z M 360.57 394.83 A 0.60 0.60 0.0 0 0 360.14 395.73 L 363.57 401.51 Q 363.93 402.12 364.63 402.02 L 365.14 401.94 A 0.49 0.49 0.0 0 0 365.46 401.16 Q 363.51 398.55 362.89 395.80 Q 362.71 395.02 361.92 394.87 Q 361.24 394.73 360.57 394.83 Z M 358.17 402.55 L 355.18 400.03 Q 354.66 399.60 354.05 399.32 Q 352.85 398.76 352.41 399.54 A 0.33 0.33 0.0 0 0 352.49 399.96 Q 355.12 402.11 357.94 404.30 C 359.28 405.34 360.07 407.58 358.19 408.57 A 0.53 0.52 75.5 0 0 357.92 409.03 Q 357.93 409.60 358.53 409.69 Q 358.99 409.76 359.40 409.54 Q 361.09 408.63 360.79 406.22 Q 360.15 401.14 359.41 396.77 Q 359.30 396.13 358.65 396.12 L 358.24 396.12 Q 357.59 396.12 357.70 396.77 L 358.63 402.28 Q 358.77 403.06 358.17 402.55 Z M 350.82 409.77 C 358.62 408.84 351.93 396.37 346.89 403.04 Q 346.39 403.71 345.58 403.50 A 0.59 0.59 0.0 0 0 344.92 404.36 L 350.19 413.49 Q 350.54 414.10 351.23 414.02 L 351.80 413.96 Q 352.46 413.88 352.13 413.31 L 350.49 410.44 Q 350.15 409.85 350.82 409.77 Z" data-c-fill="2d2272"/><path fill="#2e85e3" d="M 294.55 372.18 Q 297.41 375.86 300.26 379.88 Q 303.21 384.05 306.20 387.22 Q 309.44 390.65 312.73 394.09 Q 279.25 416.58 246.37 438.65 Q 241.95 441.62 239.32 442.01 C 231.47 443.19 223.97 438.13 223.00 430.11 Q 221.94 421.30 229.27 416.32 Q 261.76 394.24 294.55 372.18 Z" data-c-fill="2e85e3"/><path fill="#21307f" d="M360.57 394.83Q361.24 394.73 361.92 394.87 362.71 395.02 362.89 395.8 363.51 398.55 365.46 401.16A.49.49 0 0 1 365.14 401.94L364.63 402.02Q363.93 402.12 363.57 401.51L360.14 395.73A.6.6 0 0 1 360.57 394.83ZM358.63 402.28 357.7 396.77Q357.59 396.12 358.24 396.12L358.65 396.12Q359.3 396.13 359.41 396.77 360.15 401.14 360.79 406.22 361.09 408.63 359.4 409.54 358.99 409.76 358.53 409.69 357.93 409.6 357.92 409.03A.53.52 75.5 0 1 358.19 408.57C360.07 407.58 359.28 405.34 357.94 404.3Q355.12 402.11 352.49 399.96A.33.33 0 0 1 352.41 399.54Q352.85 398.76 354.05 399.32 354.66 399.6 355.18 400.03L358.17 402.55Q358.77 403.06 358.63 402.28Z" data-c-fill="21307f"/><path fill="#21307f" d="M 350.49 410.44 L 352.13 413.31 Q 352.46 413.88 351.80 413.96 L 351.23 414.02 Q 350.54 414.10 350.19 413.49 L 344.92 404.36 A 0.59 0.59 0.0 0 1 345.58 403.50 Q 346.39 403.71 346.89 403.04 C 351.93 396.37 358.62 408.84 350.82 409.77 Q 350.15 409.85 350.49 410.44 Z M 351.5260 408.1920 A 2.97 2.23 62.4 0 0 352.1262 404.5268 A 2.97 2.23 62.4 0 0 348.7740 402.9280 A 2.97 2.23 62.4 0 0 348.1738 406.5932 A 2.97 2.23 62.4 0 0 351.5260 408.1920 Z" data-c-fill="21307f"/><ellipse fill="#2d2272" cx="0" cy="0" transform="rotate(62.4 -159.755 491.863)" rx="2.97" ry="2.23" data-c-fill="2d2272"/><path fill="#21307f" d="M 341.79 415.28 L 336.76 412.34 Q 337.11 412.41 337.36 412.15 Q 337.73 411.79 337.52 411.31 C 335.39 406.39 344.67 402.87 346.05 410.49 Q 346.49 412.97 341.79 415.28 Z M 342.9578 413.0014 A 3.01 2.49 63.4 0 0 343.8364 409.1951 A 3.01 2.49 63.4 0 0 340.2622 407.6186 A 3.01 2.49 63.4 0 0 339.3836 411.4249 A 3.01 2.49 63.4 0 0 342.9578 413.0014 Z" data-c-fill="21307f"/><ellipse fill="#2d2272" cx="0" cy="0" transform="rotate(63.4 -161.37 481.712)" rx="3.01" ry="2.49" data-c-fill="2d2272"/><path fill="#21307f" d="M 335.41 411.46 Q 334.24 411.32 334.01 410.54 Q 334.35 410.38 334.66 410.35 Q 335.22 410.30 335.42 410.83 Q 335.53 411.14 335.41 411.46 Z" data-c-fill="21307f"/><path fill="#2e85e3" d="M 352.37 420.21 Q 363.28 424.93 375.71 427.40 Q 351.13 443.97 327.05 460.05 Q 322.86 462.86 318.92 461.51 C 314.57 460.03 311.38 455.87 312.23 451.18 Q 313.05 446.66 315.97 444.70 Q 334.01 432.61 352.37 420.21 Z" data-c-fill="2e85e3"/><circle fill="#2e85e3" cx="304.34" cy="427.21" r="4.95" data-c-fill="2e85e3"/><rect fill="#2e85e3" x="-39.84" y="-4.37" transform="rotate(-32.5 911.61 -212.682)" width="79.68" height="8.74" rx="4.32" data-c-fill="2e85e3"/><circle fill="#2e85e3" cx="295.12" cy="468.85" r="9.4" data-c-fill="2e85e3"/></svg>